<svg xmlns="http://www.w3.org/2000/svg" xmlns:xlink="http://www.w3.org/1999/xlink" width="311" height="324" viewBox="0 0 311 324">
  <defs>
    <clipPath id="clip-path">
      <rect id="background_basic_200" data-name="background/ basic 200" width="311" height="324" rx="12" transform="translate(374.248 -9279.221)" fill="#f7f9fc"/>
    </clipPath>
    <linearGradient id="linear-gradient" x1="0.5" y1="1" x2="0.5" gradientUnits="objectBoundingBox">
      <stop offset="0" stop-color="gray" stop-opacity="0.251"/>
      <stop offset="0.54" stop-color="gray" stop-opacity="0.122"/>
      <stop offset="1" stop-color="gray" stop-opacity="0.102"/>
    </linearGradient>
  </defs>
  <g id="Group_105" data-name="Group 105" transform="translate(-374.248 9279.221)">
    <rect id="background_basic_200-2" data-name="background/ basic 200" width="311" height="324" rx="12" transform="translate(374.248 -9279.221)" fill="#f7f9fc"/>
    <g id="Mask_Group_61" data-name="Mask Group 61" clip-path="url(#clip-path)">
      <g id="undraw_medicine_b1ol_1_" data-name="undraw_medicine_b1ol (1)" transform="translate(307.248 -9361.221)">
        <ellipse id="Oval" cx="63.387" cy="8.226" rx="63.387" ry="8.226" transform="translate(205.742 388.968)" fill="#6d7bd1" opacity="0.1"/>
        <path id="Shape" d="M175.1,373.61V248.8h158l-.556,82.638-37.624,20.66a267.568,267.568,0,0,1-74.5,19.824h-.11q-7.216.872-14.5,1.328h-.176q-9.311.612-18.642.612Q181.047,373.859,175.1,373.61Zm-30.173-2.848A287.163,287.163,0,0,1,68.972,348.7q-3.933-1.748-7.8-3.632c-1.716-.835-3.428-1.7-5.129-2.563q-3.829-1.976-7.591-4.052a260.729,260.729,0,0,1-32.062-20.914c-.64-.488-1.285-.954-1.914-1.473q-1.909-1.473-3.782-2.988c-.63-.488-1.254-1.007-1.873-1.526l-1.3-1.069c-1.284-1.074-2.564-2.168-3.86-3.206-1.2-.97-2.414-1.925-3.641-2.833V248.8H129.33c-.094-.327-.177-.659-.276-.991.1.332.193.664.281.991h33.134v76.936h-.005v47.052Q153.662,372.048,144.926,370.761Zm17.543-45.028h.515l-.515,0Zm183.252-76.91,31.146-.011a99.385,99.385,0,0,1-9.6,42.113A101.835,101.835,0,0,1,345.721,319.9Zm0-2.242V174.839H358.05c1.28,2.521,2.524,5.043,3.7,7.637.629,1.37,1.248,2.756,1.841,4.151l.015-.026c8.116,18.912,13.271,39.665,13.287,59.981Zm-170.621,0V174.833l158.021-.026v71.774Zm-175.079,0V174.807H162.49v71.774Zm345.7-73.984V153.92l.015-.026A202.1,202.1,0,0,1,356.9,172.6Zm-151.164,0H175.1V99.168l2.217-2.024h112.77l.016-.025a224.918,224.918,0,0,1,43.039,39.908v35.565Zm-194.536,0V97.119H162.49v75.473Zm178.8-77.684-.391-.426.583-.617,30.371-33.241a226.013,226.013,0,0,1,26.693,8c.827.306,1.649.623,2.47.933l.016-.025a231.379,231.379,0,0,1,48.35,25.375ZM0,94.9V0C28.66,2.678,56.6,13.469,79.122,31.352c10.842,8.587,20.544,18.76,32.692,25.349a46.806,46.806,0,0,0,20.44,5.926l29.133,31.855-.4.42ZM175.1,55.478v-.026q9.983.68,19.847,2.267L175.1,79.437Zm-28.181,4.555.021-.021c5.759-2.267,10.321-3.8,15.529-4.441V77.051Z" transform="translate(1.107 0.592)" fill="#e52d27" opacity="0.1"/>
        <rect id="Rectangle" width="32.903" height="72.581" transform="translate(130.258 99.613)" fill="#6d7bd1" opacity="0.1"/>
        <path id="Path" d="M162.581,0V72.581H0V41.275H86.6V59.742h43.223V0Z" transform="translate(0.581 174.129)" fill="#6d7bd1" opacity="0.1"/>
        <path id="Path-2" data-name="Path" d="M162.581,78.429h-.519v47.377q-8.77-.747-17.488-2.031a284.567,284.567,0,0,1-75.795-22.25Q58.333,96.8,48.312,91.2A261,261,0,0,1,16.326,70.155q-3.819-2.944-7.54-6.025C7.068,62.7,5.361,61.243,3.633,59.823c-1.2-.976-2.408-1.937-3.633-2.856V1H128.98c-.088-.334-.176-.668-.27-1,.1.329.192.663.28,1h33.071V78.4C162.238,78.4,162.409,78.419,162.581,78.429Z" transform="translate(1.548 246.71)" fill="#6d7bd1" opacity="0.1"/>
        <path id="Path-3" data-name="Path" d="M21.29,27.1H0v-6.81H9.544V0q1.241.465,2.472.957v19.33H21.29Z" transform="translate(227.032 67.677)" fill="#6d7bd1" opacity="0.1"/>
        <path id="Path-4" data-name="Path" d="M124.839,75.458H19.544l.037.026-.047-.026H0V3.17H5.535V56.6H30.828V24.957H51.721V0H73.17V24.978H94.063V56.622h30.775Z" transform="translate(175.742 95.742)" fill="#6d7bd1" opacity="0.1"/>
        <path id="Shape-2" data-name="Shape" d="M0,199.105V74.138H123.929V99.6h33.813l-.172,56.9-37.962,21.06a266.446,266.446,0,0,1-74.365,19.854h-.109q-7.2.873-14.474,1.33h-.176q-9.293.613-18.608.613Q5.937,199.355,0,199.105ZM0,71.883V0H123.929V71.883Z" transform="translate(175.742 175.097)" fill="#e52d27" opacity="0.1"/>
        <rect id="Rectangle-2" data-name="Rectangle" width="17.419" height="23.226" transform="translate(145.742 118.968)" fill="#6d7bd1" opacity="0.1"/>
        <rect id="Rectangle-3" data-name="Rectangle" width="17.419" height="4.839" transform="translate(145.742 166.387)" fill="#6d7bd1" opacity="0.1"/>
        <rect id="Rectangle-4" data-name="Rectangle" width="17.419" height="15.484" transform="translate(145.742 174.129)" fill="#6d7bd1" opacity="0.1"/>
        <rect id="Rectangle-5" data-name="Rectangle" width="17.419" height="23.226" transform="translate(145.742 213.806)" fill="#6d7bd1" opacity="0.1"/>
        <rect id="Rectangle-6" data-name="Rectangle" width="17.419" height="23.226" transform="translate(145.742 261.226)" fill="#6d7bd1" opacity="0.1"/>
        <path id="Path-5" data-name="Path" d="M17.857,17.8a2.93,2.93,0,0,1,.53.032h-.53v5.39H0V0H17.857Z" transform="translate(145.742 307.677)" fill="#6d7bd1" opacity="0.1"/>
        <path id="Path-6" data-name="Path" d="M17.419,0V17.419Q8.684,16.681,0,15.412V0Z" transform="translate(145.742 355.097)" fill="#6d7bd1" opacity="0.1"/>
        <rect id="Rectangle-7" data-name="Rectangle" width="75.484" height="0.968" transform="translate(0.581 244.774)" fill="#6d7bd1" opacity="0.1"/>
        <rect id="Rectangle-8" data-name="Rectangle" width="75.484" height="5.806" transform="translate(0.581 248.645)" fill="#6d7bd1" opacity="0.1"/>
        <rect id="Rectangle-9" data-name="Rectangle" width="75.484" height="10.645" transform="translate(0.581 274.774)" fill="#6d7bd1" opacity="0.1"/>
        <path id="Path-7" data-name="Path" d="M70.645,0V10.645H12.575Q8.793,7.621,5.1,4.435C3.4,2.965,1.716,1.458,0,0Z" transform="translate(4.452 306.71)" fill="#6d7bd1" opacity="0.1"/>
        <path id="Path-8" data-name="Path" d="M27.1.016V10.645H20.8Q10.193,5.766,0,0Z" transform="translate(48.968 337.677)" fill="#6d7bd1" opacity="0.1"/>
        <path id="Shape-3" data-name="Shape" d="M80.118,289.092c2.854-.947,5.718-6.666,5.718-6.666a6.7,6.7,0,0,1,1.668-.369c.052-.11.11-.224.161-.338,2.137-4.519,5.057-12.839,5.057-12.839v-.068c.3-3.443.816-6.869,1.336-10.28.972-6.136-.81-21.217-.81-21.217s-.634-18.341-2.017-22.5A34.065,34.065,0,0,1,90,208.3c-.036-.317-.067-.635-.094-.936-11.019.089-23.924-.213-29.822-1.84a40.98,40.98,0,0,0-5.161-1.04c.052.3.109.625.172.962a72.541,72.541,0,0,0,2.021,7.909c2.547,8.122,1.487,21.767-2.011,31.565-2.552,7.145-1.829,16.8-1.252,21.481a5.539,5.539,0,0,1,.067.562L54,266.9a3.9,3.9,0,0,0,1.284,2.849,6.6,6.6,0,0,1,2.349,6.1,8.252,8.252,0,0,1-3.581,5.423v9.21H52.036v-9.064c-6.569-1.561-14.412,10.4-14.412,10.4s-11.232.52-20.026.312-2.864-4.066-2.864-4.066c9.854.317,14.308-5.309,14.308-5.309l.114.811a.54.54,0,0,0,.084-.073c3.705-3.469,8.383-12.1,8.383-12.1s.311-4.373,1.48-6.458.743-23.962.743-23.962l.094-35.667v-.941a14.232,14.232,0,0,1-4.126.047c-1.695-.728-.317-12.09,1.169-14.9.925-1.758,4.45-13.495,6.97-22.07a24.718,24.718,0,0,1-2.2,2.9c1.59-2.117,10.275-43.853,10.275-43.853l.3-5.476a29.525,29.525,0,0,1-3.373-5.72c-3.431-.384-11.954-1.877-16.632-7.374-1.086-1.273-1.315-2.179-.967-2.8L5.089,99.7,0,95.425l15.727,2.907c-3.1-5.813.7-7.924,4.423-8.673L19.256,86.9a1.31,1.31,0,0,1,.187-1.166l.031-.031.062-.073a.987.987,0,0,1,.1-.109l.067-.063.136-.094.072-.041a1.614,1.614,0,0,1,.234-.1,1.357,1.357,0,0,1,1.7.868l1.039,3.219.442-.026,19.282-.832s3.077-4.581,4.242-3.229,2.858-.208,2.858-.208,0-9.776,2.547-9.36a3.213,3.213,0,0,0,2.6-.7l.058-1.071s.426-5,.852-9.266c.4-3.9,7.588-9.1,8.835-9.979l8.16-11.409a.694.694,0,0,1,.047.068l.275-.384a1.778,1.778,0,0,1-.037-.234c-.036-.2-.067-.4-.1-.593a15.886,15.886,0,0,1-4.819.743A15.6,15.6,0,0,1,52.39,27.356a15.207,15.207,0,0,1,1.128-5.766l.094-.224a4.49,4.49,0,0,1-2.6-.26,1.852,1.852,0,0,1-.52-.333c-2.188-2.074,2.9-7.228,3.815-9.074a46.97,46.97,0,0,1,2.048-4.68A8.219,8.219,0,0,1,58.1,5.069c-.052.078-.11.157-.157.234l-.057.094A13.113,13.113,0,0,1,62.5,2.839c6.237-2.111,19.412-5.174,23.347.026A11.656,11.656,0,0,0,88.34,5.792a18.821,18.821,0,0,0,2.7,1.192c2.51,1.159,4.117,3.681,4.974,6.276s1.107,5.346,1.731,8a58.535,58.535,0,0,0,3.606,9.843c1.653,3.8,3.4,7.722,6.591,10.4,4.361,3.656,5.338,8.824,9.356,12.829,4.756,4.763,4.625,12.61,2.156,18.85a4.943,4.943,0,0,0-.561,2.549,4.8,4.8,0,0,0,1.409,2.355l2.6,2.9a14.58,14.58,0,0,1-9.823-1.269,15.933,15.933,0,0,1-1.8-1.039V79.4c.2,6.3.077,11.237.077,11.237-3.284,5.315,5.3,48.028,5.3,48.028,2.017,8.227,4.454,59.895,4.469,59.916a37.5,37.5,0,0,1-14.069,3.182q.041.3.094.577a17.343,17.343,0,0,0,1.471,4.577h-.3c6.835,10.3,1.148,32.073,1.148,32.073s-1.481,8.128-4.027,17.083c-1.409,4.955-.64,7.748.328,9.246v.031c.067.1.124.2.186.3v-.15c5.832,6.874,1.908,10.369,1.908,10.369l-3.249,4.066.281,7.078-2.115.416.519-5.819-1.985,2.486-.42,5.834s-9.756.936-16.216,2.08a14.812,14.812,0,0,1-2.566.249C78.012,292.258,77.7,289.895,80.118,289.092Z" transform="translate(205.742 105.419)" fill="url(#linear-gradient)"/>
        <path id="Path-9" data-name="Path" d="M.577.958,0,7.742l1.935-.383L1.644,0,.577.958Z" transform="translate(308.323 385.097)" fill="#1d2366"/>
        <path id="Path-10" data-name="Path" d="M27.7,43.97c-2.449,7.1-1.756,16.685-1.207,21.34.2,1.721.392,2.768.392,2.768s-3.66,8.49-3.966,8.812-10.772,6.826-10.772,6.826L4.83,88.065S-2.593,84.752.966,83.612A5.4,5.4,0,0,0,2.885,82.28c3.564-3.447,8.038-12.015,8.038-12.015s.305-4.349,1.425-6.417.713-23.8.713-23.8l.087-35.428V0L27.071.1a32.631,32.631,0,0,0,.6,4.665,72.382,72.382,0,0,0,1.94,7.858C32.066,20.707,31.047,34.241,27.7,43.97Z" transform="translate(232.839 305.742)" fill="#ffb0b1"/>
        <path id="Path-11" data-name="Path" d="M28.065,2.816s-3.821,8.67-4.14,9-11.246,6.971-11.246,6.971L5.042,23.226s-7.749-3.382-4.034-4.547a5.64,5.64,0,0,0,2-1.36l.33,2.313,2.546-.106L27.677,0C27.868,1.747,28.065,2.816,28.065,2.816Z" transform="translate(232.839 371.548)" opacity="0.1"/>
        <path id="Path-12" data-name="Path" d="M40.869,0,19.185,19.306l-2.519.1-.526-3.639s-4.407,5.6-14.2,5.292c0,0-5.88,3.841,2.835,4.049S24.618,24.8,24.618,24.8,32.391,12.845,38.9,14.4v9.029h2V14.321A8.2,8.2,0,0,0,44.44,8.915,6.582,6.582,0,0,0,42.12,2.843,3.893,3.893,0,0,1,40.869,0Z" transform="translate(219.29 371.548)" fill="#e52d27"/>
        <path id="Path-13" data-name="Path" d="M19.124,55.23c-1.37,4.907-.623,7.67.314,9.152v.031A16.942,16.942,0,0,1,21.9,70.44l.082.465L12.321,85.031,7.079,87.1S-1.352,84.21.188,83.383a7.916,7.916,0,0,0,1.679-2.758c2.06-4.468,4.9-12.711,4.9-12.711v-.067c.3-3.4.772-6.8,1.3-10.175.942-6.079-.788-21-.788-21S6.661,18.529,5.322,14.4a34.139,34.139,0,0,1-1.2-6.425c-.278-2.582-.34-4.71-.34-4.71s5.552-7.747,15.728.62A11.216,11.216,0,0,1,21.637,6.2c7.03,10.03,1.37,32.125,1.37,32.125S21.591,46.362,19.124,55.23Z" transform="translate(290.903 305.742)" fill="#ffb0b1"/>
        <path id="Path-14" data-name="Path" d="M22.258,6.76,12.476,21.125l-5.308,2.1S-1.369,20.29.19,19.449a8.055,8.055,0,0,0,1.7-2.8C5.5,16.613,7.376,20.08,7.376,20.08l4.578-.735S17.993,7.39,19.348,6.66s.209-5.457.209-5.457V0c.037.042.068.089.11.131V.163a17.271,17.271,0,0,1,2.493,6.129Z" transform="translate(290.903 370.581)" opacity="0.1"/>
        <path id="Path-15" data-name="Path" d="M14.7,20.2s-2.6-4.849-7.591-3.059c0,0-2.806,5.811-5.613,6.751S-.369,28,5.972,26.846s15.9-2.113,15.9-2.113l.417-5.911,6.446-8.331S32.579,6.957,26.862,0V1.21s1.145,4.754-.208,5.489-7.362,12.763-7.362,12.763Z" transform="translate(284.129 370.581)" fill="#e52d27"/>
        <path id="Path-16" data-name="Path" d="M14.844.105a31.631,31.631,0,0,0,.64,4.734A70.1,70.1,0,0,0,0,4.686V0Z" transform="translate(246.387 305.742)" opacity="0.1"/>
        <path id="Path-17" data-name="Path" d="M18.387,7.271S10.156,7.662.34,7.742C.062,5.236,0,3.17,0,3.17s5.546-7.519,15.712.6a11.011,11.011,0,0,1,2.125,2.246A12.065,12.065,0,0,0,18.387,7.271Z" transform="translate(295.742 305.742)" opacity="0.1"/>
        <path id="Path-18" data-name="Path" d="M71.613,97.247S35.411,99,24.377,95.9,2.407,95.487.759,94.768.449,82.78,1.9,79.989s9.381-31.006,9.381-31.006L18.912,9.095l8.043-2.221.568-.16L41.538,2.842,51.807,0s20.42,79.886,18.669,85.777a15.114,15.114,0,0,0-.3,6.931A17.325,17.325,0,0,0,71.613,97.247Z" transform="translate(242.516 214.774)" fill="#e52d27"/>
        <path id="Path-19" data-name="Path" d="M3.972,0S-3.577,7.446,2.139,11.6s9.474.4,9.474.4Z" transform="translate(229.935 196.387)" fill="#c7daf5"/>
        <path id="Path-20" data-name="Path" d="M3.972,0S-3.577,7.446,2.139,11.6s9.474.4,9.474.4Z" transform="translate(229.935 196.387)" opacity="0.1"/>
        <path id="Path-21" data-name="Path" d="M15.484,14.586s-.848.832-2.125,2.059c-1.82,1.755-4.513,4.321-6.9,6.471C3.148,26.087.419,28.269,1.4,26.407s.791-5.105.305-8.141c-.036-.2-.067-.405-.1-.6A57.376,57.376,0,0,0,0,11.07S5.346,3.943,8.3,1.132C9.4.065,10.174-.372,10.221.369A25.375,25.375,0,0,0,11.9,5.906c.026.075.052.144.083.219.6,1.6,1.277,3.243,1.872,4.662C14.76,12.964,15.484,14.586,15.484,14.586Z" transform="translate(276.387 130.581)" fill="#ffb0b1"/>
        <path id="Path-22" data-name="Path" d="M11.613,5.837A15.033,15.033,0,0,1,1.649,17.419,53.635,53.635,0,0,0,0,10.554S9.758-2.244,9.909.346A24.488,24.488,0,0,0,11.613,5.837Z" transform="translate(276.387 130.581)" opacity="0.1"/>
        <path id="Path-23" data-name="Path" d="M19.383,1.867,20.687,0s.865,5.354,4.043,2.992,3.334,17.77,3.334,17.77L24.653,72.581,0,71.082.7,46.043l2.79-12.622,6.9-18.349L14.5,9.009Z" transform="translate(258 148.968)" opacity="0.1"/>
        <path id="Path-24" data-name="Path" d="M28.065,20.782,24.957,67.618l-.326,4.963-13.753-.836-.518-.032L0,71.082.7,46.048,3.491,33.43l6.9-18.342L14.5,9.027l4.89-7.166L20.7,0s.865,5.352,4.045,2.991l.067-.047h0C27.919.946,28.065,20.782,28.065,20.782Z" transform="translate(258 150.903)" fill="#e52d27"/>
        <path id="background_basic_100" data-name="background/ basic 100" d="M31.6,0S30.378,2.575,27.92,2.158s-2.453,9.27-2.453,9.27-1.634,1.545-2.76.206-4.1,3.188-4.1,3.188L0,15.646s8.281,3.806,6.657,15.322c0,0,28.114-1.751,29.036-4.424S31.6,0,31.6,0Z" transform="translate(230.903 179.935)" fill="#fff"/>
        <path id="Path-25" data-name="Path" d="M31.6,0S30.378,2.575,27.92,2.158s-2.453,9.27-2.453,9.27-1.634,1.545-2.76.206-4.1,3.188-4.1,3.188L0,15.646s8.281,3.806,6.657,15.322c0,0,28.114-1.751,29.036-4.424S31.6,0,31.6,0Z" transform="translate(230.903 179.935)" opacity="0.03"/>
        <path id="background_basic_100-2" data-name="background/ basic 100" d="M0,0,5.032,4.158l41.42,8.423L41.315,7.508,0,0Z" transform="translate(206.71 201.226)" fill="#fff"/>
        <path id="background_basic_100-3" data-name="background/ basic 100" d="M29.612,4.855c-.679,1.038-2.625,6.355-4.248,11-1.354,3.868-2.484,7.269-2.484,7.269s-2.64,17.206-3.989,20.316-.617,15.239-.617,15.239L13.247,88.628S10.97,104.075,7.453,113.3C3.983,122.382.119,126.639,0,126.774c1.556-2.108,10.037-43.613,10.037-43.613l2.8-52.346s.41-4.974.825-9.226S22.48,11.532,22.48,11.532L30.582,0C31.4,1.09,30.851,2.991,29.612,4.855Z" transform="translate(248.323 148)" fill="#fff"/>
        <path id="Path-26" data-name="Path" d="M18.734,11.613S6.843,11.088,1.084,4.062,14.4,1.258,14.4,1.258l4.958,1.155Z" transform="translate(237.677 209.935)" fill="#ffb0b1"/>
        <path id="Path-27" data-name="Path" d="M44.408,146.551a14.791,14.791,0,0,0-.306,6.924c-13.225.92-27.372-2.585-27.372-2.585-2.635,2.379-9.577,5.884-9.577,5.884L3.368,110.753C.949,104.548,0,72.039,0,72.039s.216-1.7.527-4.25A.481.481,0,0,1,.553,67.6C1.5,60.477,3.368,47.11,4.285,45.305,5.55,42.823.4,36.22.4,36.22L2.741,16.6l.285-2.368c4.944-2.167,8.734-9.085,8.734-9.085l2.91-5h0c3.163-1.991,3.326,17.519,3.326,17.519L14.832,63.729,25.311,60.89S46.195,140.667,44.408,146.551Z" transform="translate(268.645 153.806)" opacity="0.1"/>
        <path id="background_basic_100-4" data-name="background/ basic 100" d="M57.1,161.988c-14.353,7.019-40.44.517-40.44.517-2.624,2.378-9.535,5.882-9.535,5.882l-3.773-46C.945,116.183,0,83.687,0,83.687S3.033,59.44,4.293,56.965a3.927,3.927,0,0,0-.247-2.957,36.891,36.891,0,0,1-2.3-17.31l1.008-8.43.278-2.362c4.928-2.171,8.7-9.087,8.7-9.087l2.624-4.528,4.828-8.342L21.474,0l.388.346,2.965,2.646,3.149,2.584c4.109,3.411,11.209,9.417,14.872,13.092,3.222,3.236,4.24,15.822,4.534,25.3.194,6.239.079,11.128.079,11.128-3.248,5.267,5.248,47.552,5.248,47.552C54.688,110.818,57.1,161.988,57.1,161.988Z" transform="translate(268.645 141.226)" fill="#fff"/>
        <path id="Path-28" data-name="Path" d="M43.958.738s-9.8,18.7-8.665,25.813,4.377,15.155,2.815,17.034a5.767,5.767,0,0,1-4.591,2.3c-1.567.1-5.746,3.031-5.746,3.345s-3.86.314-7.313,1.78a45.448,45.448,0,0,1-8.551,2.3s-9.924-.314-10.849.628-1.875,6.58.1,11.077S5.342,72.865,7,73.478s12.2-2.926,20.752-3.764,17.832-7.627,17.832-7.627S55.809,58.422,57.6,52.26s-2.189-40.026-2.189-40.026S52.4-3.549,43.958.738Z" transform="translate(255.097 156.71)" opacity="0.03"/>
        <path id="Path-29" data-name="Path" d="M43.968.737s-9.81,18.71-8.66,25.814,4.38,15.155,2.812,17.04a5.746,5.746,0,0,1-4.589,2.3c-1.568.1-5.749,3.031-5.749,3.345s-3.862.314-7.317,1.775a45.943,45.943,0,0,1-8.555,2.3s-9.93-.314-10.85.628-1.881,6.586.1,11.077,4.181,7.853,5.843,8.465,12.209-2.926,20.764-3.759,17.843-7.633,17.843-7.633,10.223-3.665,11.994-9.821-2.19-40.032-2.19-40.032S52.419-3.545,43.968.737Z" transform="translate(253.161 154.774)" opacity="0.03"/>
        <path id="background_basic_100-5" data-name="background/ basic 100" d="M43.946.731s-9.8,18.711-8.655,25.816S39.668,41.7,38.106,43.583a5.741,5.741,0,0,1-4.591,2.3c-1.567.1-5.745,3.031-5.745,3.34s-3.855.314-7.312,1.78a45.546,45.546,0,0,1-8.55,2.3s-9.924-.314-10.848.628-1.875,6.586.1,11.078S5.342,72.865,7,73.478s12.2-2.927,20.751-3.764,17.832-7.628,17.832-7.628S55.807,58.42,57.6,52.258s-2.162-40.03-2.162-40.03S52.386-3.53,43.946.731Z" transform="translate(255.097 156.71)" fill="#fff"/>
        <path id="Path-30" data-name="Path" d="M5.572.429S-2.108-1.013.565,1.39,3.222,5.9,6.494,5.8,5.572.429,5.572.429Z" transform="translate(291.871 206.065)" opacity="0.1"/>
        <path id="Path-31" data-name="Path" d="M.962,0S-2.722,2.507,4.326,8.284.962,0,.962,0Z" transform="translate(310.258 262.194)" opacity="0.1"/>
        <path id="Path-32" data-name="Path" d="M.146,0c0,.291-1.2,10.667,3.3,13.262S.146,0,.146,0Z" transform="translate(304.452 282.516)" opacity="0.1"/>
        <path id="Path-33" data-name="Path" d="M9.334,0C5.369.128-3.2,1.262,1.245,9.024c3.927,6.87,10.526,2.278,14.239-1.206A13.21,13.21,0,0,0,9.334,0Z" transform="translate(221.226 195.419)" fill="#ffb0b1"/>
        <path id="Path-34" data-name="Path" d="M.339.634l.29-.3Z" transform="translate(235.742 202.194)" fill="#ffb0b1"/>
        <path id="Path-35" data-name="Path" d="M24.194,5.547c-3.866,2.694-7.108,4.967-7.742,5.439C14.72,12.3,11.417,19.977,9.288,23.9,7.591,27.054,2.079,27.864,0,28.065l.267-2.345C4.994,23.564,8.613,16.7,8.613,16.7L17.956,0l3.217,2.981Z" transform="translate(272.516 141.226)" opacity="0.1"/>
        <path id="Path-36" data-name="Path" d="M24.194,5.547c-3.866,2.694-7.108,4.967-7.742,5.445C14.72,12.3,11.417,19.977,9.288,23.9,7.591,27.054,2.079,27.864,0,28.065l.267-2.345C4.994,23.564,8.613,16.7,8.613,16.7L17.956,0l3.217,2.971S22.381,3.987,24.194,5.547Z" transform="translate(272.516 141.226)" fill="#dce7ff"/>
        <path id="Path-37" data-name="Path" d="M30.968,15a14.648,14.648,0,0,1-2.725,8.5,15.782,15.782,0,0,1-19.516,5A14.834,14.834,0,0,1,.7,10.552,15.514,15.514,0,0,1,17.806.171,15.156,15.156,0,0,1,30.968,15Z" transform="translate(258 118)" fill="#ffb0b1"/>
        <path id="Path-38" data-name="Path" d="M57.1,67.742a13.806,13.806,0,0,1-5.016-5.381c-.875-1.727-1.457-3.722-2.951-4.947-1.347-1.1-3.145-1.366-4.822-1.858C38.793,53.927,34.17,48.9,34,43.165c-.084-2.7.76-5.4.377-8.072a8.935,8.935,0,0,0-1.751-4.162A14.335,14.335,0,0,0,31.109,29.3c-.734-.691-1.5-1.361-2.175-2.094a8.13,8.13,0,0,1-1.1-1.492,7.172,7.172,0,0,1-.6-1.387c-1.048-3.2-.094-7-1.248-10.244l-.063-.178a3.335,3.335,0,0,0-2.553-2.392c-1.232-.089-2.285.932-3.459,1.387-2.458.953-5.111-.67-7.16-2.324S8.387,7.034,5.781,7.4c-1.724.246-3.087,1.419-4.676,2.026A6.559,6.559,0,0,1,0,9.746,15.544,15.544,0,0,1,29.966,15.53a15.345,15.345,0,0,1-.341,3.24c.026.073.052.141.084.215.608,1.57,1.295,3.183,1.9,4.575l2.962,2.68,3.145,2.617c4.1,3.455,11.2,9.538,14.855,13.26C55.786,45.405,56.793,58.147,57.1,67.742Z" transform="translate(258.968 118)" opacity="0.1"/>
        <path id="Path-39" data-name="Path" d="M4.225,11.737c.736-1.518,1.1-3.219,1.982-4.659a10.957,10.957,0,0,1,5.863-4.231c6.048-2.113,18.829-5.181,22.648,0a11.259,11.259,0,0,0,2.414,2.922,17.808,17.808,0,0,0,2.62,1.195c2.435,1.158,3.989,3.683,4.818,6.261s1.076,5.342,1.683,8a59.341,59.341,0,0,0,3.5,9.845c1.6,3.788,3.3,7.716,6.388,10.393,4.216,3.652,5.147,8.822,9.059,12.829,4.633,4.758,4.483,12.61,2.095,18.845a5.233,5.233,0,0,0-.546,2.546,5.008,5.008,0,0,0,1.364,2.358l2.532,2.9a14.175,14.175,0,0,1-15.56-7.273c-.86-1.722-1.431-3.7-2.9-4.93-1.318-1.1-3.088-1.356-4.73-1.847-5.415-1.628-9.955-6.642-10.125-12.36-.082-2.687.746-5.374.371-8.035a8.934,8.934,0,0,0-1.724-4.174c-1.416-1.873-3.552-3.13-4.7-5.217-1.951-3.49-.468-8.024-1.874-11.77a3.3,3.3,0,0,0-2.507-2.384c-1.21-.089-2.244.929-3.4,1.383-2.409.95-5.013-.663-7.026-2.316s-4.283-3.532-6.846-3.162c-1.693.24-3.027,1.409-4.586,2.019-1.153.449-3.49.85-4.5-.136C-1.6,18.744,3.334,13.595,4.225,11.737Z" transform="translate(257.032 106.387)" fill="#242324"/>
        <path id="Path-40" data-name="Path" d="M56.629,66.2c-.865-1.7-1.431-3.667-2.9-4.876-1.318-1.085-3.088-1.348-4.736-1.834-5.41-1.606-9.95-6.57-10.125-12.232-.082-2.66.746-5.326.376-7.96a8.849,8.849,0,0,0-1.724-4.106c-1.421-1.854-3.557-3.1-4.7-5.165-1.951-3.45-.468-7.939-1.879-11.653a3.3,3.3,0,0,0-2.5-2.361c-1.2-.093-2.249.925-3.4,1.374-2.409.94-5.019-.661-7.026-2.293s-4.288-3.5-6.846-3.135c-1.694.243-3.032,1.4-4.586,2-1.153.444-3.5.847-4.5-.129-2.121-2.066,2.816-7.154,3.7-8.983A49.552,49.552,0,0,1,7.754.232C7.8.155,7.852.077,7.9,0A8.194,8.194,0,0,0,6.21,1.932c-.88,1.426-1.246,3.1-1.982,4.613C3.337,8.373-1.6,13.476.527,15.527c1.029.981,3.346.579,4.5.134,1.544-.6,2.893-1.761,4.586-2,2.574-.367,4.839,1.5,6.846,3.13s4.633,3.234,7.031,2.293c1.153-.449,2.162-1.462,3.4-1.369a3.282,3.282,0,0,1,2.507,2.361c1.405,3.709-.077,8.2,1.874,11.653,1.153,2.03,3.289,3.3,4.7,5.165A8.8,8.8,0,0,1,37.7,41.029c.376,2.634-.453,5.295-.371,7.955.17,5.682,4.71,10.625,10.125,12.237,1.632.486,3.413.744,4.73,1.829,1.477,1.214,2.059,3.177,2.9,4.881a14.224,14.224,0,0,0,15.561,7.2l-1.194-1.353A14.387,14.387,0,0,1,56.629,66.2Z" transform="translate(256.065 111.226)" opacity="0.1"/>
        <path id="Path-41" data-name="Path" d="M6.511,5.076a117.639,117.639,0,0,0-3.87,11.376C1.257,15.839,0,11.935,0,11.935L7.38,0C8.136,1.182,7.64,3.142,6.511,5.076Z" transform="translate(271.548 148.968)" opacity="0.1"/>
        <path id="Path-42" data-name="Path" d="M6.511,5.072a117.7,117.7,0,0,0-3.87,11.38C1.257,15.844,0,11.933,0,11.933L7.38,0C8.136,1.177,7.64,3.143,6.511,5.072Z" transform="translate(271.548 148)" fill="#dce7ff"/>
        <path id="Path-43" data-name="Path" d="M4.361,16.2.06,1.76A1.428,1.428,0,0,1,.141.728,1.29,1.29,0,0,1,.885.062h0A1.258,1.258,0,0,1,2.474.94l4.3,14.427-.427,3.02Z" transform="translate(226.065 190.581)" fill="#be8b87"/>
        <path id="background_basic_100-6" data-name="background/ basic 100" d="M.271.469h0a1.3,1.3,0,0,1,1.642.878L6.344,15.774l-.333,2.264.322.349.44-3.02L2.318.94A1.3,1.3,0,0,0,.68.062h0A1.315,1.315,0,0,0,0,.591,1.751,1.751,0,0,1,.271.469Z" transform="translate(226.065 190.581)" fill="#fff" opacity="0.1"/>
        <path id="Path-44" data-name="Path" d="M0,1.044,1.935,0,1.653,3.173l-.06.7-.566-1L0,1.044Z" transform="translate(230.903 205.097)" fill="#efc8c4"/>
        <path id="Path-45" data-name="Path" d="M0,.182A.605.605,0,0,1,.191.038a.3.3,0,0,1,.29,0,.681.681,0,0,1,.1.149A.536.536,0,0,0,.968.414L.875.968Z" transform="translate(231.871 208)" fill="#727a9c"/>
        <path id="Path-46" data-name="Path" d="M0,0S8.463-.05,6.47,3.625A7.616,7.616,0,0,1,1.364,7.742Z" transform="translate(226.065 197.355)" fill="#ffb0b1"/>
        <g id="Group_2" data-name="Group 2" transform="translate(82 251)">
          <rect id="Rectangle-10" data-name="Rectangle" width="2.721" height="61.255" transform="translate(56.026 6.73)" fill="#535461"/>
          <path id="Path-47" data-name="Path" d="M36.91,4.157l-.169,2.76L36.5,10.822l-.1,1.623L36.16,16.35l-.1,1.623-.243,3.905L33.07,66.167A7.507,7.507,0,0,1,25.581,73.2H11.323a7.5,7.5,0,0,1-7.485-7.038L1.108,21.847.865,17.942l-.1-1.623L.523,12.414l-.1-1.623L.18,6.886.006,4.126A3.905,3.905,0,0,1,3.911,0H33.074A3.879,3.879,0,0,1,36.91,4.157Z" transform="translate(38.933 63.641)" fill="#3f3d56"/>
          <ellipse id="Oval-2" data-name="Oval" cx="46.778" cy="7.513" rx="46.778" ry="7.513" transform="translate(12 133.434)" fill="#6d7bd1" opacity="0.1"/>
          <path id="Path-48" data-name="Path" d="M36.579,0l-.243,3.892H.243L0,0Z" transform="translate(39.095 70.558)" fill="#9d9cb5"/>
          <path id="Path-49" data-name="Path" d="M35.893,0l-.239,3.9H.243L0,0Z" transform="translate(39.438 76.073)" fill="#9d9cb5"/>
          <path id="Path-50" data-name="Path" d="M35.207,0l-.239,3.892H.243L0,0Z" transform="translate(39.781 81.597)" fill="#9d9cb5"/>
          <path id="Path-51" data-name="Path" d="M34.93,12.115C50.772,23.579,57.384,41.508,57.384,41.508s-19.092-.655-34.938-12.119S0,0,0,0,19.083.651,34.93,12.115Z" transform="translate(0.013 17.573)" fill="#88d16d"/>
          <path id="Path-52" data-name="Path" d="M0,0S19.821,11,26.178,20.107s31.22,21.4,31.22,21.4" transform="translate(0 17.573)" fill="none" stroke="#535461" stroke-miterlimit="10" stroke-width="0.868"/>
          <path id="Path-53" data-name="Path" d="M19.014,6.6c8.622,6.235,12.228,15.994,12.228,15.994S20.849,22.233,12.223,16,0,0,0,0,10.388.356,19.014,6.6Z" transform="translate(26.156 0)" fill="#88d16d"/>
          <path id="Path-54" data-name="Path" d="M0,0S10.787,5.988,14.245,10.943s17,11.646,17,11.646" transform="translate(26.156 0)" fill="none" stroke="#535461" stroke-miterlimit="10" stroke-width="0.868"/>
          <path id="Path-55" data-name="Path" d="M12,14.319C2.1,25.206,0,39.434,0,39.434s13.968-3.428,23.865-14.319S35.867,0,35.867,0,21.908,3.432,12,14.319Z" transform="translate(57.914 7.776)" fill="#88d16d"/>
          <path id="Path-56" data-name="Path" d="M35.876,0s-12.9,11.16-16.185,18.849S0,39.429,0,39.429" transform="translate(57.914 7.78)" fill="none" stroke="#535461" stroke-miterlimit="10" stroke-width="0.868"/>
        </g>
      </g>
    </g>
  </g>
</svg>
