<svg xmlns="http://www.w3.org/2000/svg" width="70.645" height="100" viewBox="0 0 70.645 100">
  <g id="Group_84" data-name="Group 84" transform="translate(-10.453 -1.497)">
    <path id="Path_6568" data-name="Path 6568" d="M22.232,11.869a6.386,6.386,0,0,0-.746,1.631c.264-.449.492-.839.72-1.229l.056.03c-.023.107-.046.211-.07.318,0,.02-.01.041-.013.061a27.326,27.326,0,0,0-.529,8.695l.6,6.134c.059.6.1,1.207.136,1.811a14.538,14.538,0,0,0,3.83,8.565.849.849,0,0,1,.159.285A15.924,15.924,0,0,0,30.1,44.632a12.075,12.075,0,0,0,8.688,3.975H38.8a12.026,12.026,0,0,0,8.651-3.946A15.9,15.9,0,0,0,51.1,38.487a2.844,2.844,0,0,1,.484-.846,14.238,14.238,0,0,0,3.647-9.223c0-.223,0-.448,0-.669l.047-11.137c-.056-.371-.11-.744-.164-1.125.059.151.115.3.172.438.1.257.2.5.285.751.136.379.253.764.379,1.148a.592.592,0,0,0-.015-.2A15.4,15.4,0,0,0,54.864,14.1c-.041-.089-.082-.175-.119-.264a0,0,0,0,1,0,0c-.072-.164-.141-.328-.2-.5q-.263-.716-.525-1.434l-.4-1.09c-.025-.066-.049-.131-.072-.2l.08-.044c.448.708.9,1.416,1.346,2.123a6.958,6.958,0,0,0-.249-.7,7.3,7.3,0,0,0-1.723-2.633,2.905,2.905,0,0,1-.441-.511A7.63,7.63,0,0,0,49.494,6.04c-.038-.02-.077-.038-.115-.054-.6-.269-1.213-.521-1.818-.78-.153-.064-.3-.131-.456-.2.308.025.612.059.913.1a17.5,17.5,0,0,1,4.91,1.575,1.274,1.274,0,0,0-.2-.157A13.793,13.793,0,0,0,46.49,4.353l-.259-.028A7.832,7.832,0,0,1,44,3.938a7.187,7.187,0,0,0-.878-.251c-.341-.089-.682-.172-1.023-.256-.082-.021-.164-.039-.246-.061.005-.043,0-.03.008-.072H45.74c-.03-.075-.064-.1-.1-.1a21.824,21.824,0,0,0-5.084-.27,7.649,7.649,0,0,1-1.743,0c-.256-.036-.518-.046-.775-.067,0-.043,0-.031,0-.074L41.9,2.059a25.4,25.4,0,0,0-3.86.344c-.7.123-1.382.348-2.083.438-1,.131-2.017.184-3.033.269A19.55,19.55,0,0,1,39.263,1.5c-.411.011-.821-.007-1.231.015a21.046,21.046,0,0,0-4.485.659,8.935,8.935,0,0,0-3.365,1.6,5.393,5.393,0,0,1-.626.385c-.021-.031-.043-.064-.064-.1.456-.329.9-.687,1.374-.985a14.841,14.841,0,0,1,1.518-.815c.5-.236,1.026-.425,1.539-.634a15.1,15.1,0,0,0-2.944,1.08c-1.874.92-3.282,2.454-4.9,3.708l-.01.01c-.1.169-.22.334-.311.511-.136.261-.241.541-.4.789a.764.764,0,0,1-.352.246c-.266.108-.549.172-.811.289a4.4,4.4,0,0,0-2.566,3.188,5.753,5.753,0,0,1,1.375-1.81c-.167.575-.307,1.087-.469,1.59A2.743,2.743,0,0,1,22.232,11.869Zm3.382,15.759.015-.184c.013-.157.029-.374.054-.513a2.032,2.032,0,0,0,1.267-2.062c.018-.751.023-1.51.03-2.243.007-.818.015-1.652.038-2.484a2.515,2.515,0,0,1,2.515-2.515c.025,0,.049,0,.074,0l1.264.038c1.041-.085,2.09-.074,3.136-.089.936-.013,1.874,0,2.81,0h2.761c1,0,2.01,0,3.015,0,.743,0,1.485-.015,2.226-.018.643,0,1.284,0,1.926,0a6.159,6.159,0,0,1,1.854.174,2.38,2.38,0,0,1,1.544,1.289,10.163,10.163,0,0,1,.421,1.323l.021-.026c.02.713.02,1.441.018,2.19,0,.651,0,1.325.011,2,0,.179,0,.359,0,.552v.377a1.552,1.552,0,0,0,1.275,1.528c.03.139.049.333.058.411.305,2.874-.6,5.487-2.856,8.223a6.033,6.033,0,0,0-1.049,1.861,12.79,12.79,0,0,1-2.907,4.959A8.885,8.885,0,0,1,38.8,45.381h-.005a8.942,8.942,0,0,1-6.378-3,12.792,12.792,0,0,1-2.972-5.187,4.082,4.082,0,0,0-.785-1.408C26.342,33.078,25.373,30.487,25.614,27.628Z" transform="translate(7.054)" fill="#e52d27"/>
    <g id="Group_83" data-name="Group 83" transform="translate(10.453 50.54)">
      <path id="Path_6569" data-name="Path 6569" d="M81.073,74.464,79.34,53.655l0-.042C78.16,43.9,72.5,37.935,62.521,35.875A5.528,5.528,0,0,1,60.3,34.332a13.129,13.129,0,0,1-2.19-2.916l-2.293,2.962L48.379,45.991l-.408-4.967v0l-.084-.6,1.546-1.546v0l.267-.266a2.28,2.28,0,0,0,.282-2.91,3.486,3.486,0,0,0-2.861-1.488H44.436A3.48,3.48,0,0,0,41.577,35.7a2.278,2.278,0,0,0,.279,2.91l1.813,1.813-.051.377L43.182,46,35.743,34.376l-2.293-2.962a13.071,13.071,0,0,1-2.193,2.917,5.482,5.482,0,0,1-2.223,1.542,28.453,28.453,0,0,0-4.351,1.248,22.531,22.531,0,0,0-2.552,1.148c-5.718,3.018-9.042,8.154-9.911,15.341L10.468,74.735l0,.075a2.928,2.928,0,0,0,2.2,3.4c.415.159.964.369,1.529.552a60.677,60.677,0,0,0,14.026,2.688c4.313.363,8.637.594,11.8.761,1.113.059,2.085.111,2.864.157l.062,0H43c9.724-.084,17.272-.361,24.829-1.47a50.784,50.784,0,0,0,10.8-2.594C80.663,77.549,81.229,76.651,81.073,74.464Zm-3.674.552a47.64,47.64,0,0,1-10.075,2.407,175.231,175.231,0,0,1-24.288,1.429c-.774-.046-1.733-.1-2.829-.154-3.138-.167-7.431-.395-11.692-.752a57.211,57.211,0,0,1-13.224-2.528c-.471-.151-.939-.328-1.308-.471l1.733-20.934c.677-5.541,3.016-9.534,7.1-12.07.154.726.3,1.308.382,1.611.12.408.261.839.407,1.293l.011.033c.241.741.536,1.646.81,2.688-3.5,1.633-5.552,4.913-5.265,6.459a11.129,11.129,0,0,0-1.921,7.531,2.113,2.113,0,0,0,.89,1.549c.046.287.1.557.154.826a14.07,14.07,0,0,0,3.554,6.89,8.184,8.184,0,0,0,3.054,1.99,2.051,2.051,0,0,0,2.393,1.579c1.075-.236,2.544-1.472,2.29-2.636s-2.1-1.684-3.179-1.447a1.9,1.9,0,0,0-.8.382c-2.688-.943-4.529-4.272-5.17-7.22-.025-.121-.049-.241-.07-.361a2.068,2.068,0,0,0,.831-1.859c-.362-4.04,2.036-6.933,6.754-8.146l.021,0,.021,0c5.113-1.151,8.849.474,10.254,4.46a2.073,2.073,0,0,0,1.529,1.346c.03.12.059.238.084.357.641,2.951.352,6.744-1.7,8.716a1.911,1.911,0,0,0-.882-.02c-1.077.236-2.544,1.472-2.293,2.636s2.1,1.682,3.18,1.447a2.045,2.045,0,0,0,1.518-2.426,8.171,8.171,0,0,0,1.953-3.08A14.04,14.04,0,0,0,42,58.794c-.057-.266-.125-.54-.2-.818a2.214,2.214,0,0,0,.166-.352,2.144,2.144,0,0,0,0-1.425,11.118,11.118,0,0,0-5.084-6.175c-.108-.059-.22-.116-.325-.167a.935.935,0,0,0-.087-.046c-.585-1.067-2.466-2.442-5-3.01a14.437,14.437,0,0,0-4.261-.1c-.29-1.092-.6-2.031-.82-2.723-.121-.37-.241-.7-.346-1-.041-.12-.29-1.185-.566-2.389a24.186,24.186,0,0,1,4.264-1.272,8.079,8.079,0,0,0,3.677-2.195L42.738,51.21l-.013.1H42.8l1.551,2.344a1.711,1.711,0,0,0,2.854,0l1.551-2.344h.075v-.067h-.008l0-.03,9.318-14.085a8.054,8.054,0,0,0,3.677,2.195q.782.162,1.521.359c.133.218.27.454.418.715a6.1,6.1,0,0,1,.671,2.582,19.5,19.5,0,0,1-.987,6.683A8,8,0,1,0,66.1,50.912a24.888,24.888,0,0,0,.99-6.284,17.353,17.353,0,0,0-.27-3.716c5.283,2.42,8.252,6.743,9.028,13.1L77.57,74.74c0,.082.008.15.013.211ZM66.988,59.094a5.8,5.8,0,1,1-3.844-7.252A5.813,5.813,0,0,1,66.988,59.094Z" transform="translate(-10.453 -31.414)" fill="#e52d27"/>
      <circle id="Ellipse_1" data-name="Ellipse 1" cx="3.439" cy="3.439" r="3.439" transform="matrix(0.294, -0.956, 0.956, 0.294, 46.688, 28.251)" fill="#e52d27"/>
    </g>
  </g>
</svg>
