<svg xmlns="http://www.w3.org/2000/svg" xmlns:xlink="http://www.w3.org/1999/xlink" width="311" height="338" viewBox="0 0 311 338">
  <defs>
    <clipPath id="clip-path">
      <rect id="background_basic_200" data-name="background/ basic 200" width="311" height="324" rx="12" transform="translate(-73.752 -9279.221)" fill="#f7f9fc"/>
    </clipPath>
    <linearGradient id="linear-gradient" x1="0.5" x2="0.5" y2="1" gradientUnits="objectBoundingBox">
      <stop offset="0" stop-color="#8899e9"/>
      <stop offset="1" stop-color="#6d7bd1" stop-opacity="0.529"/>
    </linearGradient>
    <linearGradient id="linear-gradient-2" x1="0.5" y1="1" x2="0.5" gradientUnits="objectBoundingBox">
      <stop offset="0" stop-color="gray" stop-opacity="0.251"/>
      <stop offset="0.54" stop-color="gray" stop-opacity="0.122"/>
      <stop offset="1" stop-color="gray" stop-opacity="0.102"/>
    </linearGradient>
  </defs>
  <g id="Group_104" data-name="Group 104" transform="translate(-32 -308)">
    <g id="Group_60" data-name="Group 60" transform="translate(105.752 9601.221)">
      <rect id="background_basic_200-2" data-name="background/ basic 200" width="311" height="324" rx="12" transform="translate(-73.752 -9279.221)" fill="#f7f9fc"/>
      <g id="Mask_Group_60" data-name="Mask Group 60" clip-path="url(#clip-path)">
        <g id="undraw_medicine_b1ol_1_" data-name="undraw_medicine_b1ol (1)" transform="translate(-99.752 -9327.221)">
          <ellipse id="Oval" cx="91" cy="14.625" rx="91" ry="14.625" transform="translate(110.411 353.744)" fill="#6d7bd1" opacity="0.1"/>
          <path id="Path" d="M1,0H49.721V66.408H4.565c-.12.682-.235,1.368-.36,2.055H49.721v53.557c-.082-.024-.154-.053-.23-.082-1.287-.509-2.564-1.047-3.841-1.623l-.816-.37q-1.92-.907-3.841-1.92c-.446-.235-.893-.48-1.335-.73a79.893,79.893,0,0,1-19.145-14.959c-.163-.158-.317-.326-.48-.48-.778-.845-1.541-1.7-2.28-2.573l-.816-.96c-.874-1.071-1.719-2.17-2.54-3.284-.12-.163-.235-.326-.36-.48A71.473,71.473,0,0,1,5.78,79.629c-.067-.158-.125-.331-.187-.48Q4.6,76.6,3.841,74.012c-.221-.725-.432-1.44-.614-2.194-.067-.221-.125-.437-.178-.653C.322,60.522,0,49.466,0,38.487V34.647c0-4.441.053-8.91.13-13.375,0-1.157.048-2.309.072-3.471Q.3,13.38.49,8.958C.518,8.137.557,7.321.6,6.5A13.9,13.9,0,0,1,.672,5.094C.787,3.384.883,1.69,1,0Z" transform="translate(0.689 162.684)" fill="#6d7bd1" opacity="0.1"/>
          <path id="Path-2" data-name="Path" d="M26.725,33.778H0A202.589,202.589,0,0,1,14.215,14.21C18.185,9.333,22.376,4.58,26.725,0Z" transform="translate(23.684 54.966)" fill="#e52d27" opacity="0.1"/>
          <path id="Path-3" data-name="Path" d="M48.569,0V69.831H0c0-.2.034-.408.048-.61.043-.552.086-1.1.134-1.651.053-.643.11-1.291.173-1.92s.13-1.4.2-2.093.139-1.4.221-2.1.154-1.392.24-2.083.163-1.392.254-2.083c.072-.576.149-1.147.226-1.723.11-.811.226-1.627.35-2.434a2.245,2.245,0,0,1,.053-.36A166.056,166.056,0,0,1,5.478,35.242,129.657,129.657,0,0,1,11.5,17.479,133.339,133.339,0,0,1,20.566.024Z" transform="translate(1.841 90.798)" fill="#e52d27" opacity="0.1"/>
          <path id="Shape" d="M273.717,344.122a311.063,311.063,0,0,1-76.9-20.48q-3.983-1.623-7.9-3.371c-1.739-.776-3.471-1.575-5.194-2.38q-3.877-1.835-7.685-3.76a267.791,267.791,0,0,1-32.463-19.411c-.647-.453-1.3-.887-1.938-1.368q-1.933-1.368-3.83-2.774c-.637-.453-1.27-.934-1.9-1.416l-1.311-.992c-1.3-1-2.6-2.013-3.909-2.976-1.217-.9-2.444-1.786-3.687-2.629V230.919H257.926c-.1-.3-.179-.611-.279-.919.105.308.194.616.284.919h33.548v71.409h-.005V346Q282.56,345.317,273.717,344.122Zm17.762-41.794H292l-.521.005ZM16.852,290H13.707c-.347-.01-.683-.039-1.02-.039-.542-.014-1.089-.043-1.641-.082l-1.014-.073c-.421-.029-.841-.063-1.257-.1-.878-.072-1.751-.164-2.629-.275-.346-.043-.7-.087-1.051-.14-.185-.014-.357-.039-.526-.063-.889-.121-1.757-.261-2.629-.416-.642-.1-1.289-.222-1.94-.348V231H114v45.33c-13.276-4.406-28.455-2.636-42.195.967-10.625,2.8-21.026,6.612-31.657,9.34a112.977,112.977,0,0,1-14.433,2.825l-1.2.13c-.589.058-1.172.121-1.75.169l-1.761.126h-.184a5.993,5.993,0,0,1-.778.033,2.133,2.133,0,0,1-.263,0,7.7,7.7,0,0,1-.941.039h-.031c-.447.039-.9.039-1.351.039ZM127,229V163H291v66ZM0,229V163H114v66Zm127-68V91H291v70ZM0,160V90.293H5.722V88.248H0V43.208C22.193,24.9,48.094,10.573,76.961,3.965A160.215,160.215,0,0,1,114,.008V88.252H29.214V90.3H114V160ZM127,89V1c28.946,2.482,57.162,12.489,79.914,29.072,10.949,7.962,20.749,17.4,33.017,23.506a50.465,50.465,0,0,0,20.645,5.494L290,88.61l-.4.39ZM275,56.155l.021-.019C280.947,54.024,285.642,52.6,291,52V72Z" transform="translate(62)" fill="#e52d27" opacity="0.1"/>
          <path id="Path-4" data-name="Path" d="M48.569,0V34.608H0c0-.2.034-.408.048-.61.043-.552.086-1.1.134-1.651.053-.643.11-1.291.173-1.92s.13-1.4.2-2.093.139-1.4.221-2.1.154-1.392.24-2.083.163-1.392.254-2.084c.072-.576.149-1.147.226-1.723.11-.811.226-1.627.35-2.434a2.245,2.245,0,0,1,.053-.36A166.056,166.056,0,0,1,5.478.019Z" transform="translate(1.841 126.021)" fill="#6d7bd1" opacity="0.1"/>
          <path id="Path-5" data-name="Path" d="M1,0H49.721V66.408H4.565c-.12.682-.235,1.368-.36,2.055H49.721v53.557c-.082-.024-.154-.053-.23-.082-1.287-.509-2.564-1.047-3.841-1.623l-.816-.37q-1.92-.907-3.841-1.92c-.446-.235-.893-.48-1.335-.73a79.893,79.893,0,0,1-19.145-14.959c-.163-.158-.317-.326-.48-.48-.778-.845-1.541-1.7-2.28-2.573l-.816-.96c-.874-1.071-1.719-2.17-2.54-3.284-.12-.163-.235-.326-.36-.48A71.473,71.473,0,0,1,5.78,79.629c-.067-.158-.125-.331-.187-.48Q4.6,76.6,3.841,74.012c-.221-.725-.432-1.44-.614-2.194-.067-.221-.125-.437-.178-.653C.322,60.522,0,49.466,0,38.487V34.647c0-4.441.053-8.91.13-13.375,0-1.157.048-2.309.072-3.471Q.3,13.38.49,8.958C.518,8.137.557,7.321.6,6.5A13.9,13.9,0,0,1,.672,5.094C.787,3.384.883,1.69,1,0Z" transform="translate(0.689 162.684)" fill="#e52d27" opacity="0.1"/>
          <path id="Path-6" data-name="Path" d="M36.634,20.259V80.095H0V20.259H5.223V0h21.44V20.259Z" transform="translate(62.042 80.534)" fill="#6d7bd1" opacity="0.1"/>
          <rect id="Rectangle" width="36.629" height="66.408" transform="translate(62.047 162.679)" fill="#6d7bd1" opacity="0.1"/>
          <path id="Path-7" data-name="Path" d="M0,0H36.634V55.208a95.587,95.587,0,0,1-13.178,2.8l-1.095.134c-.538.062-1.071.115-1.6.168s-1.075.091-1.608.125h-.168c-.23,0-.48.029-.706.034h-.245c-.288,0-.576.029-.864.038h0c-.408.024-.816.029-1.234.034h-3.4l-.927-.034c-.48,0-1-.053-1.5-.086h0l-.922-.067-1.147-.106c-.807-.072-1.608-.163-2.4-.274l-.96-.134-.48-.067c-.8-.125-1.594-.259-2.4-.413-.59-.1-1.176-.226-1.771-.346Z" transform="translate(62.042 231.146)" fill="#6d7bd1" opacity="0.1"/>
          <rect id="Rectangle-2" data-name="Rectangle" width="101" height="209" transform="translate(207.748 163.141)" opacity="0.071" fill="url(#linear-gradient)"/>
          <rect id="Rectangle-3" data-name="Rectangle" width="69.356" height="9.496" transform="translate(207.748 256.403)" fill="#6d7bd1" opacity="0.1"/>
          <rect id="Rectangle-4" data-name="Rectangle" width="69.356" height="9.496" transform="translate(207.748 256.403)" fill="#6d7bd1" opacity="0.1"/>
          <path id="Path-8" data-name="Path" d="M66,0V9.5H11.747q-3.533-2.7-6.98-5.54C3.178,2.645,1.6,1.3,0,0Z" transform="translate(211.104 285.255)" fill="#6d7bd1" opacity="0.1"/>
          <path id="Path-9" data-name="Path" d="M24.656.014V9.5H18.929Q9.275,5.146,0,0Z" transform="translate(252.443 314.088)" fill="#6d7bd1" opacity="0.1"/>
          <rect id="Rectangle-5" data-name="Rectangle" width="13.653" height="13.653" transform="translate(101.878 105.502)" fill="#6d7bd1" opacity="0.1"/>
          <rect id="Rectangle-6" data-name="Rectangle" width="13.653" height="13.653" transform="translate(101.878 137.216)" fill="#6d7bd1" opacity="0.1"/>
          <rect id="Rectangle-7" data-name="Rectangle" width="13.653" height="13.653" transform="translate(101.878 168.929)" fill="#6d7bd1" opacity="0.1"/>
          <rect id="Rectangle-8" data-name="Rectangle" width="13.653" height="13.653" transform="translate(101.878 200.638)" fill="#6d7bd1" opacity="0.1"/>
          <rect id="Rectangle-9" data-name="Rectangle" width="13.653" height="13.653" transform="translate(101.878 232.351)" fill="#6d7bd1" opacity="0.1"/>
          <rect id="Rectangle-10" data-name="Rectangle" width="13.653" height="13.653" transform="translate(101.878 264.065)" fill="#6d7bd1" opacity="0.1"/>
          <path id="Shape-2" data-name="Shape" d="M0,7.811V0H46.725V7.811Z" transform="translate(3.685 143.562)" fill="#6d7bd1" opacity="0.1"/>
          <path id="Shape-3" data-name="Shape" d="M0,7.811V0H46.725V7.811Z" transform="translate(3.685 166.289)" fill="#6d7bd1" opacity="0.1"/>
          <path id="Shape-4" data-name="Shape" d="M0,7.826V0H46.725V7.826Z" transform="translate(3.685 189.025)" fill="#6d7bd1" opacity="0.1"/>
          <path id="Shape-5" data-name="Shape" d="M0,7.8V0H46.725V7.8Z" transform="translate(3.685 211.761)" fill="#6d7bd1" opacity="0.1"/>
          <path id="Shape-6" data-name="Shape" d="M2.592,7.8c-.062-.149-.124-.322-.187-.481H4.46V.49H.619v1.7C.4,1.469.187.734,0,0H46.524V7.8Z" transform="translate(3.886 234.492)" fill="#6d7bd1" opacity="0.1"/>
          <path id="Shape-7" data-name="Shape" d="M6.485,7.791c-.177-.153-.326-.321-.48-.48H7.561V.461H3.721V4.719c-.278-.307-.547-.634-.821-.959V.48H.36C.235.327.12.154,0,0H35.689V7.791Z" transform="translate(14.736 257.228)" fill="#6d7bd1" opacity="0.1"/>
          <path id="Path-10" data-name="Path" d="M0,0C.437.25.883.48,1.335.73V.49H5.175V2.65l.816.379V.49H9.832V4.642a1.2,1.2,0,0,0,.23.086V0Z" transform="translate(70.367 279.96)" fill="#6d7bd1" opacity="0.1"/>
          <path id="Shape-8" data-name="Shape" d="M26.735,292.175a9.578,9.578,0,0,1-.812-2.919l.706-7.647.043-.456c-.513-.868-3.974-6.812-4.887-9.03-1-2.4,3.869-4.052,5.584-5.036s-.086-6.745-.086-6.745-1.45-5.06-3.154-9.679,1.892-27.6,1.892-27.6a34.787,34.787,0,0,1,.634-5.511,9.235,9.235,0,0,0,.13-3.126l-.13-.067.043-.778a1.4,1.4,0,0,1-.043-.289l.177-3.283s.446-37.2-.811-40.037-2.247-17.311-1.526-19.53a11.7,11.7,0,0,0,.081-2.534l-1.076.759a3.063,3.063,0,0,1-.706-.265l-.374.265C17.2,147.512,4.412,125.049,4.412,125.049S.543,116.259.72,115.285,0,107.915,0,107.915L1.623,93.537l8.795-18.122A65.739,65.739,0,0,0,13.48,67.6c1.526-4.7,8.642-9.323,8.642-9.323s7.292-4.613,10.173-4.435,6.663-4.086,6.663-4.086c1.244-3.125,2.544-4.225,3.6-4.484v-.043l.043.034a2.274,2.274,0,0,1,.615-.053,2.018,2.018,0,0,1,1.594.71,27.47,27.47,0,0,0,.052-4.277c-.009-.183-.033-.37-.033-.553a16.431,16.431,0,0,1-7.48-13.418v-.537c-1.119-1.2-2.631-2.016-3.658-3.3a6.4,6.4,0,0,1-.442-.643c-.039-.063-.067-.125-.105-.193a4.432,4.432,0,0,1-.245-.48c-.039-.082-.072-.168-.106-.25-.062-.158-.12-.317-.167-.48-.029-.086-.063-.173-.086-.264-.058-.211-.115-.481-.144-.634s-.053-.38-.068-.481-.01-.149-.039-.3a2.575,2.575,0,0,1-.029-.48v-.782a10.089,10.089,0,0,1,.173-1.47A23.781,23.781,0,0,1,35.021,11.1q.99-1.833,1.949-3.673A10.446,10.446,0,0,1,40,3.452c2.516-1.695,5.924-.936,8.886-1.637,1.373-.322,2.651-.965,4-1.359a11.671,11.671,0,0,1,8.137.625c0,.105,2.612,1.7,2.881,1.949a18.45,18.45,0,0,1,2.055,2.482c1.305,1.695,3.129,1.469,5.17,1.642,1.8.154,3.85.452,4.835,1.945a4.494,4.494,0,0,1,.355,3.528c-.288,1.181-.8,2.3-1.038,3.5-.043.23-.076.47-.105.71l-.029.4c-.1,1.6.158,3.221.206,4.829.072,1.987-.321,4.172-1.848,5.468a7.227,7.227,0,0,0-1.777,1.56,17.754,17.754,0,0,0-.629,1.921,1.56,1.56,0,0,1-.936.845c-.052.182-.1.374-.158.556a16.605,16.605,0,0,1-7.3,9.035,3.7,3.7,0,0,1,.024.518,47.106,47.106,0,0,0,.556,4.93s2.344.014,2.881.721a4.755,4.755,0,0,0,.782.59c3.087,2.059,13.98,8.377,13.98,8.377s6.025,2.357,7.47,5.761a46.817,46.817,0,0,0,3.149,6.764c.725.975,1.081,5.5,1.081,5.5s2.078,8.344,3.7,9.765,2.789,10.36,2.789,10.383a43.188,43.188,0,0,1,1.354,7.9c0,2.756,1.892,3.02,1.892,3.02s2.064,2.395.984,4.172-1.531,6.125-1.531,6.125.365,8.348-1.258,9.5-1.983,3.9-1.983,3.9-2.972,5.238-2.88,6.481-4.144,9.679-4.144,9.679l-.85-.481-.23.481s.039-.2.077-.553c-.548-.336-1.268-.749-2.075-1.3-.859.629.1,2.117.1,2.117a4.841,4.841,0,0,0-.6.427c.034.062.063.105.063.105a5.1,5.1,0,0,0-.59.4,1.11,1.11,0,0,0-.121,1.513c.989,1.156.365,6.438.365,6.438l-2.7,4.412s.173,2.842.173,6.682c.009,5.977-.356,14.4-2.334,18.242l.269,31.517s-1.512.547-3.84,1.138c.048.346.091.7.134,1.032a19.827,19.827,0,0,1,.206,2.54c-.086.979,0,3.989,0,3.989l.447,9.054a10.1,10.1,0,0,0-.447,2.929c.092,1.157,1.8,17.671,1.8,17.671s2.977,9.842,1.983,10.562,1.441,9.6,1.441,9.6a6.776,6.776,0,0,0-.859,0h.85c-.086,3.639,6.125,7.816,6.125,7.816,6.606,2.434,7.581,5.161,7.633,6.4a1.927,1.927,0,0,1-.067.691s-1.325.23-3.308.48c-5.061.629-14.407,1.5-16.87-.48a9.291,9.291,0,0,0-6.861-2.069l-.158.029s-6.481.173-7.561-1.949c-.452-.887-.336-2.6-.058-4.287a40.653,40.653,0,0,1,1.138-4.685c.442-.471.442-3.721.442-3.721-6.659-8.968-.989-12.606-.989-12.606s-2.972-14.115-3.509-19.352c-.38-3.653-.845-13.486-1.094-19.093q-.043-.556-.043-1.037c-1.133.068-2.256.068-3.361.068a62.865,62.865,0,0,1-9.045-.687c-.091.336-.177.677-.249,1.027a28,28,0,0,0-.331,7.024c.177,3.38,0,26.015,0,26.015s-3.869,6.053-6.035,8.161,4.412,5.948,4.412,5.948c.989,5.506-4.954,11.718-4.954,11.718s.053.134.154.37c.648,1.632,3.254,8.267,3.178,9.659a2.638,2.638,0,0,0,.8,1.921,4.756,4.756,0,0,0,.912.753,68.068,68.068,0,0,1-11.666,3.034c-.537.072-1.094.13-1.574.164q-.215.014-.42.014A5.033,5.033,0,0,1,26.735,292.175Z" transform="translate(144.283 76.909)" fill="url(#linear-gradient-2)"/>
          <path id="background_basic_100" data-name="background/ basic 100" d="M11.175,12.64l-1.037,4.417S1.833,12.818.335,7.431,2.841,0,2.841,0L10.58,3.279Z" transform="translate(224.887 206.168)" fill="#fff"/>
          <path id="Path-11" data-name="Path" d="M11.175,12.64l-1.037,4.417S1.833,12.818.335,7.431,2.841,0,2.841,0L10.58,3.279Z" transform="translate(224.887 206.168)" opacity="0.1"/>
          <path id="background_basic_100-2" data-name="background/ basic 100" d="M18.79,17.489s-7.681,2.823-12.962,3.178A4.932,4.932,0,0,1,.792,17.479,9.649,9.649,0,0,1,0,14.575L.686,6.966l.365-4.052L12.271,0,13.86,4.858l.149.37c.638,1.623,3.2,8.224,3.12,9.6a2.621,2.621,0,0,0,.787,1.9,4.566,4.566,0,0,0,.874.763Z" transform="translate(170.663 351.634)" fill="#fff"/>
          <path id="background_basic_100-3" data-name="background/ basic 100" d="M34.481,14.124a1.92,1.92,0,0,1-.067.686s-16.428,2.741-19.788,0a8.9,8.9,0,0,0-6.913-2.026S1.356,12.957.3,10.864C-.147,9.985-.031,8.281.242,6.6A40.609,40.609,0,0,1,1.356,1.939l.254-.2L3.123.523,20.828,0h.134c-.086,3.62,6.01,7.772,6.01,7.772C33.449,10.173,34.4,12.885,34.481,14.124Z" transform="translate(207.439 351.13)" fill="#fff"/>
          <path id="Path-12" data-name="Path" d="M34.478,7.523a1.959,1.959,0,0,1-.072.686s-16.423,2.741-19.784,0A8.9,8.9,0,0,0,7.714,6.183S1.354,6.356.3,4.263C-.144,3.38-.034,1.68.24,0,2.688.245,6.553.855,8.07,2.309c2.295,2.213,6.183,4.421,8.569,4.594C18.506,7.023,29.678,7.379,34.478,7.523Z" transform="translate(207.441 357.731)" opacity="0.1"/>
          <path id="Path-13" data-name="Path" d="M17.993.739S10.312,3.562,5.031,3.917A4.919,4.919,0,0,1,0,.725c1.954.658,4.666,1.349,6.092.715C7.782.691,13.773.206,17.134,0A4.729,4.729,0,0,0,17.993.739Z" transform="translate(171.46 368.384)" opacity="0.1"/>
          <path id="Path-14" data-name="Path" d="M12.771,28.8C6.434,26.341-1.717,18.2.318,14.4a8.507,8.507,0,0,0,.792-3.053,27.878,27.878,0,0,0,.058-4.321A59.169,59.169,0,0,0,.318,0S20.1.446,18.95,3.36a10.9,10.9,0,0,0-.3,4c.091,1.661.331,3.538.581,5.127.346,2.18.691,3.841.691,3.841s-1.21,1.695-1.92,1.786S21.864,32.313,12.771,28.8Z" transform="translate(188.078 112.838)" fill="#ffb0b1"/>
          <path id="Path-15" data-name="Path" d="M13.322,5.228l-.149.163C7.259-1.762.106,7.153.106,7.153L0,6.966.365,2.914,11.584,0l1.589,4.858Z" transform="translate(171.335 351.634)" opacity="0.1"/>
          <path id="Path-16" data-name="Path" d="M19.6.523S15.281.432,12.977,2.468s-13.442.442-12.962,0a1.579,1.579,0,0,0,.25-.73L1.777.523,19.482,0C19.549.322,19.6.523,19.6.523Z" transform="translate(208.804 351.111)" opacity="0.1"/>
          <path id="Path-17" data-name="Path" d="M25.568,9.481a13.356,13.356,0,0,0-.73,2.463,28.185,28.185,0,0,0-.331,6.99c.178,3.36,0,25.881,0,25.881s-3.8,6.006-5.914,8.123,4.321,5.919,4.321,5.919c.96,5.473-4.858,11.656-4.858,11.656C12.14,63.36,4.987,72.279,4.987,72.279S1.1,65.558.129,63.158,3.926,59.1,5.6,58.122,5.52,51.4,5.52,51.4s-1.416-5.036-3.1-9.63S4.277,14.306,4.277,14.306A35.444,35.444,0,0,1,4.9,8.828a9.16,9.16,0,0,0,.13-3.111c-.029-.35-.062-.643-.086-.84S4.9,4.589,4.9,4.589l.067-.115L7.364,0S26.72,6.663,25.568,9.481Z" transform="translate(166.448 285.98)" fill="#e52d27"/>
          <path id="Path-18" data-name="Path" d="M24.791,60.431s-4.321-.091-6.625,1.92-13.442.442-12.962,0,.442-3.711.442-3.711c-6.534-8.92-.96-12.539-.96-12.539S1.767,32.059,1.239,26.85c-.37-3.639-.826-13.418-1.071-19C.062,5.449,0,3.8,0,3.8L5.338,2.722l.686-.139L18.9,0s.355,2.4.6,4.364a20.393,20.393,0,0,1,.2,2.53c-.086.96,0,3.965,0,3.965l.437,9.011a10.235,10.235,0,0,0-.437,2.914c.086,1.147,1.762,17.575,1.762,17.575s2.914,9.8,1.92,10.509S24.791,60.431,24.791,60.431Z" transform="translate(203.615 290.675)" fill="#e52d27"/>
          <path id="Path-19" data-name="Path" d="M18.631,3.36a10.9,10.9,0,0,0-.3,4A16.442,16.442,0,0,1,.85,7.033,59.169,59.169,0,0,0,0,0S19.784.437,18.631,3.36Z" transform="translate(188.397 112.838)" opacity="0.1"/>
          <path id="Path-20" data-name="Path" d="M32.849,16.709a16.26,16.26,0,0,1-.807,5.094A16.428,16.428,0,0,1,0,17.1v-.394a16.428,16.428,0,1,1,32.851,0Z" transform="translate(181.827 88.88)" fill="#ffb0b1"/>
          <path id="Path-21" data-name="Path" d="M12.771,17.455C6.434,14.993-1.717,6.855.318,3.053A8.507,8.507,0,0,0,1.11,0L9.785,7.129l5.367,4.4L19.233,1.143c.346,2.18.691,3.841.691,3.841S18.714,6.678,18,6.769,21.864,20.965,12.771,17.455Z" transform="translate(188.078 124.187)" opacity="0.1"/>
          <path id="Path-22" data-name="Path" d="M41.156,49.726l-7.244,121.7-9.448.619L0,101.477,4.013,17.7,4.858,0,15.737,8.934l5.372,4.4,4.2-10.691L33.12,9.453l8.036,40.273Z" transform="translate(182.127 123.423)" fill="#e52d27"/>
          <path id="Path-23" data-name="Path" d="M20.667,9.443a13.356,13.356,0,0,0-.73,2.463A69.61,69.61,0,0,1,.13,5.718L0,5.65l.043-.773.024-.4L2.468,0S21.819,6.625,20.667,9.443Z" transform="translate(171.349 286.018)" opacity="0.1"/>
          <path id="Path-24" data-name="Path" d="M5.478,4.522a48.6,48.6,0,0,1-5.31.6C.062,2.727,0,1.075,0,1.075L5.338,0Z" transform="translate(203.586 293.421)" opacity="0.1"/>
          <path id="Path-25" data-name="Path" d="M13.471,4.364c-3.413.888-8.684,1.887-13.4,1.263L0,2.583,12.875,0S13.231,2.376,13.471,4.364Z" transform="translate(209.611 290.699)" opacity="0.1"/>
          <path id="Path-26" data-name="Path" d="M62.246,173.481c-19.683,3.36-37.709-6.275-37.709-6.275l.173-3.264s.446-37.009-.792-39.846-2.2-17.225-1.5-19.433-2.559-35.323-2.559-35.323L19.328,55.9,0,48.068,8.641,30.055a65,65,0,0,0,3.005-7.777c1.5-4.676,8.478-9.27,8.478-9.27s7.153-4.589,9.981-4.417S36.639,4.53,36.639,4.53C39.375-2.445,41.852.714,41.852.714a6.231,6.231,0,0,1-.134,1.032C40.758,9.4,57.243,33.6,57.479,34.026h0l1.57,38.242,1.589,48.4Z" transform="translate(147.346 123.401)" opacity="0.1"/>
          <path id="background_basic_100-4" data-name="background/ basic 100" d="M62.26,173.51c-19.683,3.36-37.714-6.275-37.714-6.275l.178-3.264s.446-37.009-.8-39.846-2.2-17.225-1.5-19.433S19.87,69.368,19.87,69.368l-.533-13.442L0,48.068,8.641,30.055a66.014,66.014,0,0,0,3.005-7.777c1.5-4.676,8.478-9.27,8.478-9.27S27.278,8.419,30.1,8.591,36.634,4.53,36.634,4.53C39.375-2.445,42.395.714,42.395.714c0,.331-.288.48-.134,1.032,2.112,7.427,15,31.853,15.233,32.28h0l1.589,38.242,1.589,48.4Z" transform="translate(146.803 123.372)" fill="#fff"/>
          <path id="Path-27" data-name="Path" d="M18.132,34C16.015,33.12,4.8,20.317,4.8,20.317V17.4c-.408-.96-2.832-.374-4.8.3L.845,0l.96.8C3.908,8.219,17.887,33.576,18.132,34Z" transform="translate(185.627 124.484)" opacity="0.1"/>
          <path id="background_basic_100-5" data-name="background/ basic 100" d="M18.137,34C16.015,33.12,4.8,20.317,4.8,20.317V17.4c-.408-.96-2.832-.374-4.8.3L.85,0l.96.8C3.917,8.219,17.9,33.581,18.137,34Z" transform="translate(186.155 123.423)" fill="#fff"/>
          <path id="Path-28" data-name="Path" d="M1.08,1.411C1.344,1.411,14.767,0,14.767,0s8.128,15.982,7.595,19.87-1.5,7.331-4.767,6.721S0,27.071,0,27.071Z" transform="translate(170.802 219.869)" opacity="0.1"/>
          <path id="background_basic_100-6" data-name="background/ basic 100" d="M1.08,1.411C1.344,1.411,14.767,0,14.767,0s8.123,15.986,7.595,19.87-1.5,7.331-4.767,6.721S0,27.071,0,27.071Z" transform="translate(170.269 218.808)" fill="#fff"/>
          <path id="Path-29" data-name="Path" d="M7.34,0S19.659,6.62,19.923,8.641s-6.27-.883-7.681-1.234a17.575,17.575,0,0,0-2.828-.442L0,7.22Z" transform="translate(174.124 212.716)" fill="#ffb0b1"/>
          <circle id="Oval-2" data-name="Oval" cx="1.296" cy="1.296" r="1.296" transform="translate(199.025 156.721)" opacity="0.1"/>
          <circle id="Oval-3" data-name="Oval" cx="1.296" cy="1.296" r="1.296" transform="translate(199.025 156.193)" fill="#3f3d56"/>
          <circle id="Oval-4" data-name="Oval" cx="1.296" cy="1.296" r="1.296" transform="translate(201.411 212.832)" opacity="0.1"/>
          <circle id="Oval-5" data-name="Oval" cx="1.296" cy="1.296" r="1.296" transform="translate(201.411 212.299)" fill="#3f3d56"/>
          <circle id="Oval-6" data-name="Oval" cx="1.296" cy="1.296" r="1.296" transform="translate(200.317 184.776)" opacity="0.1"/>
          <circle id="Oval-7" data-name="Oval" cx="1.296" cy="1.296" r="1.296" transform="translate(200.317 184.248)" fill="#3f3d56"/>
          <path id="background_basic_100-7" data-name="background/ basic 100" d="M24.186,94.162s.883,1.325,0,1.944.086,2.117.086,2.117-2.2,1.291-1.234,2.453.355,6.409.355,6.409l-2.65,4.388s.158,2.828.168,6.649c0,5.962-.35,14.344-2.29,18.166l.269,31.353S9.611,171.03,1.843,170L.691,119.687s1.68-28.531,2.3-34a56.975,56.975,0,0,0,.442-8.569S3.168,68.55,2.28,64.575c0,0-.96-17.22-1.056-21.987-.043-2.28.077-8.934.211-15.261.149-6.918.317-13.442.317-13.442L0,.02S1.752-.158,2.28.548a5.055,5.055,0,0,0,.768.59h0C6.073,3.184,16.759,9.472,16.759,9.472s5.914,2.352,7.331,5.722a49.869,49.869,0,0,0,3.087,6.721c.686.96,1.061,5.473,1.061,5.473s2.035,8.305,3.625,9.712,2.751,10.355,2.751,10.355L20.571,58.5s-1.234,18.367-1.5,19.078S24.186,94.162,24.186,94.162Z" transform="translate(207.306 125.252)" fill="#fff"/>
          <path id="background_basic_100-8" data-name="background/ basic 100" d="M24.752,94.314s.879,1.325,0,1.944.082,2.117.082,2.117-2.189,1.306-1.229,2.468.355,6.409.355,6.409l-2.65,4.388s.158,2.828.173,6.649c0,5.962-.35,14.344-2.29,18.166l.264,31.353s-9.294,3.389-17.052,2.357L1.258,119.854s1.68-28.531,2.3-34a56.447,56.447,0,0,0,.437-8.569S3.73,68.717,2.847,64.742c0,0-.96-17.22-1.061-21.987-.043-2.28.082-8.934.211-15.261.149-6.918.317-13.442.317-13.442L0,0S2.314,0,2.847.715a4.556,4.556,0,0,0,.768.59h0C6.639,3.351,17.331,9.64,17.331,9.64s5.91,2.352,7.326,5.722a49.071,49.071,0,0,0,3.092,6.721c.691.96,1.056,5.473,1.056,5.473s2.035,8.305,3.625,9.712S35.165,47.6,35.165,47.6L21.123,58.645s-1.234,18.367-1.5,19.078S24.752,94.314,24.752,94.314Z" transform="translate(207.273 125.099)" fill="#fff"/>
          <path id="Path-30" data-name="Path" d="M7.4,17.076l1.267,3.7L2,27.494c.149-6.913.317-13.442.317-13.442L0,0S2.314,0,2.847.715a4.378,4.378,0,0,0,.768.586h0l5.674,16.37Z" transform="translate(207.806 126.15)" opacity="0.1"/>
          <path id="background_basic_100-9" data-name="background/ basic 100" d="M7.4,17.076l1.272,3.7L2,27.494c.149-6.918.317-13.442.317-13.442L0,0S2.319,0,2.847.715a4.8,4.8,0,0,0,.768.59h0L9.294,17.671Z" transform="translate(207.273 125.089)" fill="#fff"/>
          <path id="Path-31" data-name="Path" d="M32.849,16.709a16.26,16.26,0,0,1-.807,5.094.686.686,0,0,1-.518-.13C31.4,17.352,29.272,13.3,26.656,9.844a12.429,12.429,0,0,0-2.64-2.736,5.166,5.166,0,0,0-3.581-1.013c-1.44.2-2.712,1.176-4.167,1.3-1.92.158-3.639-1.171-5.545-1.239A5.449,5.449,0,0,0,6.647,8.048,11.181,11.181,0,0,0,4.462,12.1a23.706,23.706,0,0,0-1.219,6.99c-.024,1.344-.154,3.029-1.4,3.519a7.172,7.172,0,0,0-1.81-5.478L0,17.1v-.394a16.428,16.428,0,1,1,32.851,0Z" transform="translate(181.827 88.88)" opacity="0.1"/>
          <path id="Path-32" data-name="Path" d="M28.243,1.076A11.31,11.31,0,0,0,20.264.452c-1.33.394-2.583,1.032-3.932,1.354-2.88.7-6.241-.058-8.713,1.627A10.421,10.421,0,0,0,4.653,7.384l-1.92,3.658a23.738,23.738,0,0,0-2.54,6.241,7.968,7.968,0,0,0,1.224,6.443c1.018,1.291,2.52,2.1,3.625,3.317a7.2,7.2,0,0,1,1.805,5.473c1.253-.48,1.373-2.17,1.4-3.514a23.706,23.706,0,0,1,1.219-6.99,11.142,11.142,0,0,1,2.184-4.052,5.458,5.458,0,0,1,4.076-1.891c1.92.067,3.644,1.392,5.545,1.234,1.44-.12,2.717-1.1,4.167-1.3a5.146,5.146,0,0,1,3.581,1.013,12.3,12.3,0,0,1,2.636,2.736c2.621,3.452,4.748,7.5,4.873,11.829.542.4,1.325-.12,1.594-.735a17.553,17.553,0,0,1,.619-1.92,7.081,7.081,0,0,1,1.738-1.546c1.5-1.291,1.872-3.466,1.815-5.439s-.442-3.975-.067-5.914c.226-1.191.735-2.3,1.013-3.481a4.551,4.551,0,0,0-.346-3.509c-.96-1.488-2.981-1.781-4.743-1.92-2-.173-3.793.048-5.07-1.637a18.387,18.387,0,0,0-2.016-2.468C30.812,2.766,28.243,1.181,28.243,1.076Z" transform="translate(176.812 78.431)" fill="#242324"/>
          <path id="Path-33" data-name="Path" d="M6.606,9.275,1.589,0,0,14.311s.883,6.356.706,7.331,3.62,9.712,3.62,9.712S16.87,53.7,21.992,54.848L39.3,42.481l-4.589-5.828s-1.589-.619-1.987,0c0,0-8.521-14.661-9.4-15.722a5.3,5.3,0,0,1-.711-3.178s-1.325-1.411-.883-2.736S19.164,9.1,19.164,9.1L21.9,6.539Z" transform="translate(146.27 171.469)" opacity="0.1"/>
          <path id="background_basic_100-10" data-name="background/ basic 100" d="M2.914,0,1.589,1.056,0,15.367S.883,21.723.706,22.7,4.33,32.409,4.33,32.409,16.87,54.752,21.992,55.9L39.3,43.537l-4.594-5.828s-1.589-.619-1.987,0c0,0-8.521-14.661-9.4-15.722a5.279,5.279,0,0,1-.706-3.178s-1.325-1.411-.883-2.736-2.564-5.919-2.564-5.919L21.9,7.595Z" transform="translate(145.209 170.413)" fill="#fff"/>
          <path id="Path-34" data-name="Path" d="M10.016,8.55c.96,1.167.355,6.4.355,6.4l-2.65,4.388s.158,2.832.168,6.649L3.434,27.383A2.645,2.645,0,0,1,0,24.776L.769,0,11.163,3.975c-.883.614.086,2.122.086,2.122S9.046,7.383,10.016,8.55Z" transform="translate(220.329 217.925)" opacity="0.1"/>
          <path id="background_basic_100-11" data-name="background/ basic 100" d="M10.02,8.545c.96,1.167.355,6.409.355,6.409l-2.65,4.388s.158,2.828.173,6.649L3.362,27.407A2.592,2.592,0,0,1,0,24.853L.774,0l10.4,3.975c-.888.614.082,2.117.082,2.117S9.06,7.383,10.02,8.545Z" transform="translate(220.858 217.397)" fill="#fff"/>
          <path id="Path-35" data-name="Path" d="M8.315,3.866S7.609,8.373,5.842,8.638,3.284,15.93,1.522,15.68.927,9.146.989,7.927-.931,1.657.552.51s6.178,0,6.178,0Z" transform="translate(226.005 210.267)" fill="#ffb0b1"/>
          <path id="Path-36" data-name="Path" d="M13.886,6.721,17.218,0a43.634,43.634,0,0,1,1.325,7.859c0,2.736,1.853,3.005,1.853,3.005s2.031,2.4.96,4.148-1.5,6.1-1.5,6.1.35,8.3-1.239,9.448-1.92,3.889-1.92,3.889-2.919,5.209-2.828,6.447-4.061,9.625-4.061,9.625S11.836,40.1,0,35.592c0,0-.091-3.538.792-4.508s2.261-1.411,1.4-6.313-.25-10.758-.25-11.935,2.65-8.512,2.65-8.512Z" transform="translate(224.193 172.698)" opacity="0.1"/>
          <path id="background_basic_100-12" data-name="background/ basic 100" d="M14.323,0l2.909.96a43.491,43.491,0,0,1,1.33,7.859c0,2.736,1.853,3.005,1.853,3.005s2.031,2.4.96,4.148-1.5,6.1-1.5,6.1.35,8.3-1.239,9.448-1.944,3.889-1.944,3.889-2.914,5.209-2.823,6.447-4.066,9.625-4.066,9.625S11.841,41.056,0,36.552c0,0-.086-3.538.8-4.508s2.261-1.411,1.4-6.313-.25-10.758-.25-11.935S4.6,5.286,4.6,5.286Z" transform="translate(225.196 171.738)" fill="#fff"/>
          <path id="Path-37" data-name="Path" d="M0,1.568s4.637-2.914,7.681-.8S0,1.568,0,1.568Z" transform="translate(175.262 344.372)" opacity="0.1"/>
          <path id="Path-38" data-name="Path" d="M0,.026A9.388,9.388,0,0,1,7.551,3.209C11,6.92,0,.026,0,.026Z" transform="translate(211.296 336.904)" opacity="0.1"/>
          <g id="Group" transform="translate(176.745 88.657)" opacity="0.1">
            <path id="Path-39" data-name="Path" d="M33.624,11.4a7.122,7.122,0,0,0-1.743,1.551,17.57,17.57,0,0,0-.614,1.92c-.269.624-1.051,1.133-1.594.739-.125-4.321-2.256-8.377-4.873-11.834a12.3,12.3,0,0,0-2.636-2.736A5.161,5.161,0,0,0,18.579.023c-1.44.2-2.708,1.176-4.162,1.3C12.5,1.482,10.773.152,8.867.085A5.434,5.434,0,0,0,4.8,1.982,11.118,11.118,0,0,0,2.612,6.029a23.735,23.735,0,0,0-1.219,6.99c-.029,1.339-.154,3.01-1.392,3.509a6.577,6.577,0,0,1,0,1.066c1.248-.48,1.373-2.17,1.4-3.514a23.706,23.706,0,0,1,1.219-6.99A11.142,11.142,0,0,1,4.805,3.038,5.449,5.449,0,0,1,8.876,1.146c1.92.067,3.649,1.392,5.55,1.234,1.44-.12,2.717-1.1,4.162-1.3A5.161,5.161,0,0,1,22.174,2.1,12.3,12.3,0,0,1,24.81,4.833c2.616,3.452,4.748,7.5,4.873,11.829.542.4,1.325-.12,1.594-.735a18.629,18.629,0,0,1,.614-1.92,7.1,7.1,0,0,1,1.743-1.546c1.5-1.291,1.872-3.466,1.815-5.439V6.84A6.3,6.3,0,0,1,33.624,11.4Z" transform="translate(6.932 4.711)"/>
            <path id="Path-40" data-name="Path" d="M5.048,7.244C3.944,6.03,2.437,5.218,1.424,3.932A7.028,7.028,0,0,1,.027,0a7.393,7.393,0,0,0,1.4,4.988c1.013,1.291,2.52,2.1,3.625,3.317a7.2,7.2,0,0,1,1.81,4.282A7.2,7.2,0,0,0,5.048,7.244Z" transform="translate(0.069 8.521)"/>
            <path id="Path-41" data-name="Path" d="M1.179.951C.9,2.127.391,3.245.161,4.431a11.09,11.09,0,0,0-.149,2.4A9.323,9.323,0,0,1,.161,5.468c.23-1.191.735-2.3,1.018-3.481A5.9,5.9,0,0,0,1.337,0a6.673,6.673,0,0,1-.158.951Z" transform="translate(42.138 0.322)"/>
          </g>
          <ellipse id="Oval-8" data-name="Oval" cx="46.778" cy="7.513" rx="46.778" ry="7.513" transform="translate(41.985 350.434)" fill="#6d7bd1" opacity="0.1"/>
          <g id="Group_2" data-name="Group 2" transform="translate(25.274 206.576)">
            <rect id="Rectangle-11" data-name="Rectangle" width="3.01" height="67.771" transform="translate(61.987 7.446)" fill="#535461"/>
            <path id="Path-42" data-name="Path" d="M40.837,4.6,40.65,7.652l-.269,4.321-.11,1.8-.264,4.321-.115,1.8-.269,4.321-3.034,49A8.305,8.305,0,0,1,28.3,80.993H12.527a8.3,8.3,0,0,1-8.281-7.787L1.226,24.171.957,19.851l-.11-1.8L.578,13.735l-.11-1.8L.2,7.619.007,4.565A4.321,4.321,0,0,1,4.328,0H36.593a4.292,4.292,0,0,1,4.244,4.6Z" transform="translate(43.074 70.412)" fill="#3f3d56"/>
            <path id="Path-43" data-name="Path" d="M40.47,0,40.2,4.306H.269L0,0Z" transform="translate(43.254 78.064)" fill="#9d9cb5"/>
            <path id="Path-44" data-name="Path" d="M39.711,0l-.264,4.311H.269L0,0Z" transform="translate(43.633 84.166)" fill="#9d9cb5"/>
            <path id="Path-45" data-name="Path" d="M38.953,0l-.264,4.306H.269L0,0Z" transform="translate(44.013 90.277)" fill="#9d9cb5"/>
            <path id="Path-46" data-name="Path" d="M38.646,13.4c17.527,12.683,24.844,32.52,24.844,32.52S42.366,45.2,24.834,32.515,0,0,0,0,21.113.72,38.646,13.4Z" transform="translate(0.014 19.443)" fill="#88d16d"/>
            <path id="Path-47" data-name="Path" d="M0,0S21.93,12.17,28.963,22.246,63.5,45.923,63.5,45.923" transform="translate(0 19.443)" fill="none" stroke="#535461" stroke-miterlimit="10" stroke-width="0.96"/>
            <path id="Path-48" data-name="Path" d="M21.037,7.3c9.539,6.9,13.528,17.7,13.528,17.7S23.067,24.6,13.524,17.7,0,0,0,0,11.493.394,21.037,7.3Z" transform="translate(28.939 0)" fill="#88d16d"/>
            <path id="Path-49" data-name="Path" d="M0,0S11.935,6.625,15.761,12.107s18.8,12.885,18.8,12.885" transform="translate(28.939 0)" fill="none" stroke="#535461" stroke-miterlimit="10" stroke-width="0.96"/>
            <path id="Path-50" data-name="Path" d="M13.279,15.842C2.319,27.887,0,43.629,0,43.629s15.453-3.793,26.4-15.842S39.683,0,39.683,0,24.239,3.8,13.279,15.842Z" transform="translate(64.075 8.603)" fill="#88d16d"/>
            <path id="Path-51" data-name="Path" d="M39.692,0S25.415,12.347,21.786,20.854,0,43.624,0,43.624" transform="translate(64.075 8.608)" fill="none" stroke="#535461" stroke-miterlimit="10" stroke-width="0.96"/>
          </g>
        </g>
      </g>
    </g>
    <path id="Path-52" data-name="Path" d="M52.617,0h-.173A19.645,19.645,0,0,0,36,9.1,19.645,19.645,0,0,0,19.558,0h-.173A19.683,19.683,0,0,0,0,19.776C0,26.25,2.8,35.436,8.273,43,18.693,57.4,36,70,36,70S53.31,57.4,63.727,43C69.2,35.436,72,26.25,72,19.776A19.683,19.683,0,0,0,52.617,0Z" transform="translate(271 308)" fill="#e52d27"/>
  </g>
</svg>
