<svg id="Group_85" data-name="Group 85" xmlns="http://www.w3.org/2000/svg" width="100" height="100" viewBox="0 0 100 100">
  <path id="Path_6570" data-name="Path 6570" d="M40.251,20A3.254,3.254,0,0,0,43.5,23.253h3.251A3.254,3.254,0,0,0,50,20a3.254,3.254,0,0,0,3.251-3.251V13.5A3.254,3.254,0,0,0,50,10.251,3.254,3.254,0,0,0,46.752,7H43.5a3.254,3.254,0,0,0-3.251,3.251A3.254,3.254,0,0,0,37,13.5v3.251A3.254,3.254,0,0,0,40.251,20Zm0-6.5H43.5V10.251h3.251V13.5l3.251,0v3.246H46.752V20H43.5V16.752H40.251Z" transform="translate(20.979 2.752)" fill="#e52d27"/>
  <path id="Path_6571" data-name="Path 6571" d="M92.935,7.452H81.482A8.08,8.08,0,0,0,73.581,1h-12.9a8.08,8.08,0,0,0-7.9,6.452H5.839A4.845,4.845,0,0,0,1,12.29v12.9a8.08,8.08,0,0,0,6.452,7.9v42.3A8.006,8.006,0,0,0,4.226,89.668v6.494A4.845,4.845,0,0,0,9.065,101H91.323a3.229,3.229,0,0,0,3.226-3.226V33.258h1.613A4.845,4.845,0,0,0,101,28.419v-12.9A8.074,8.074,0,0,0,92.935,7.452ZM97.477,13.9H81.645V10.677h11.29A4.832,4.832,0,0,1,97.477,13.9Zm.3,3.226v3.226H81.645V17.129Zm-37.1-12.9h12.9a4.845,4.845,0,0,1,4.839,4.839V30.032H55.839V9.065A4.845,4.845,0,0,1,60.677,4.226ZM52.613,20.355H4.226V17.129H52.613ZM5.839,10.677H52.613V13.9H4.226V12.29A1.616,1.616,0,0,1,5.839,10.677ZM4.226,25.194V23.581H52.613v6.452H9.065A4.845,4.845,0,0,1,4.226,25.194ZM9,78.418l1.482.087.4-1.139a3.214,3.214,0,1,1,6.016,2.253L16.216,81.3l1.75.474a3.214,3.214,0,0,1-.837,6.321H9.065A4.84,4.84,0,0,1,9,78.418Zm11.36,12.9h6.452v6.452H20.058a4.784,4.784,0,0,0,.3-1.613Zm0-12.9h6.452V88.1H22.715A6.424,6.424,0,0,0,20.3,79.271,6.26,6.26,0,0,0,20.355,78.419ZM39.71,62.29H30.032V52.613H39.71Zm0,3.226v9.677H30.032V65.516Zm0,12.9V88.1H30.032V78.419Zm-9.677,12.9H39.71v6.452H30.032ZM39.71,49.387H30.032V39.71H39.71Zm-12.9,0H17.129V39.71h9.677Zm-9.677,3.226h9.677V62.29H17.129Zm0,12.9h9.677v9.677H19.458a6.461,6.461,0,0,0-2.329-2.329ZM9.065,97.774a1.616,1.616,0,0,1-1.613-1.613v-5a8.057,8.057,0,0,0,1.613.163h8.065v4.839a1.616,1.616,0,0,1-1.613,1.613ZM75.194,75.194V70.355a4.845,4.845,0,0,0-4.839-4.839H68.742V46.161h12.9V97.774h-12.9V68.742h1.613a1.616,1.616,0,0,1,1.613,1.613v4.839ZM49.387,42.935V39.71H84.871l0,3.226Zm16.129,3.226V65.516H63.9a4.845,4.845,0,0,0-4.839,4.839v4.839H62.29V70.355A1.616,1.616,0,0,1,63.9,68.742h1.613V97.774h-12.9V46.161ZM91.323,97.774H84.871V46.161A3.229,3.229,0,0,0,88.1,42.935V39.71a3.229,3.229,0,0,0-3.226-3.226H49.387a3.229,3.229,0,0,0-3.226,3.226v3.226a3.229,3.229,0,0,0,3.226,3.226V97.774H42.935V36.484H13.9V71.968a6.4,6.4,0,0,0-3.226.876V33.258H91.323Zm4.839-67.742H81.645V23.581H97.774v4.839A1.616,1.616,0,0,1,96.161,30.032Z" transform="translate(-1 -1)" fill="#e52d27"/>
</svg>
