<svg xmlns="http://www.w3.org/2000/svg" xmlns:xlink="http://www.w3.org/1999/xlink" width="311" height="324" viewBox="0 0 311 324">
  <defs>
    <clipPath id="clip-path">
      <rect id="background_basic_200" data-name="background/ basic 200" width="311" height="324" rx="12" transform="translate(822.248 -9279.221)" fill="#f7f9fc"/>
    </clipPath>
    <linearGradient id="linear-gradient" x1="0.5" x2="0.5" y2="1" gradientUnits="objectBoundingBox">
      <stop offset="0" stop-color="#8899e9"/>
      <stop offset="1" stop-color="#6d7bd1" stop-opacity="0.529"/>
    </linearGradient>
    <linearGradient id="linear-gradient-2" x1="0.5" y1="1" x2="0.5" gradientUnits="objectBoundingBox">
      <stop offset="0" stop-color="gray" stop-opacity="0.251"/>
      <stop offset="0.54" stop-color="gray" stop-opacity="0.122"/>
      <stop offset="1" stop-color="gray" stop-opacity="0.102"/>
    </linearGradient>
    <linearGradient id="linear-gradient-3" xlink:href="#linear-gradient-2"/>
  </defs>
  <g id="Group_106" data-name="Group 106" transform="translate(-822.248 9279.221)">
    <rect id="background_basic_200-2" data-name="background/ basic 200" width="311" height="324" rx="12" transform="translate(822.248 -9279.221)" fill="#f7f9fc"/>
    <g id="Mask_Group_62" data-name="Mask Group 62" clip-path="url(#clip-path)">
      <g id="undraw_medicine_b1ol_1_" data-name="undraw_medicine_b1ol (1)" transform="translate(794.248 -9327.221)">
        <path id="Path" d="M1,0H49.721V66.408H4.565c-.12.682-.235,1.368-.36,2.055H49.721v53.557c-.082-.024-.154-.053-.23-.082-1.287-.509-2.564-1.047-3.841-1.623l-.816-.37q-1.92-.907-3.841-1.92c-.446-.235-.893-.48-1.335-.73a79.893,79.893,0,0,1-19.145-14.959c-.163-.158-.317-.326-.48-.48-.778-.845-1.541-1.7-2.28-2.573l-.816-.96c-.874-1.071-1.719-2.17-2.54-3.284-.12-.163-.235-.326-.36-.48A71.473,71.473,0,0,1,5.78,79.629c-.067-.158-.125-.331-.187-.48Q4.6,76.6,3.841,74.012c-.221-.725-.432-1.44-.614-2.194-.067-.221-.125-.437-.178-.653C.322,60.522,0,49.466,0,38.487V34.647c0-4.441.053-8.91.13-13.375,0-1.157.048-2.309.072-3.471Q.3,13.38.49,8.958C.518,8.137.557,7.321.6,6.5A13.9,13.9,0,0,1,.672,5.094C.787,3.384.883,1.69,1,0Z" transform="translate(0.689 162.684)" fill="#6d7bd1" opacity="0.1"/>
        <path id="Path-2" data-name="Path" d="M26.725,33.778H0A202.589,202.589,0,0,1,14.215,14.21C18.185,9.333,22.376,4.58,26.725,0Z" transform="translate(23.684 54.966)" fill="#e52d27" opacity="0.1"/>
        <path id="Path-3" data-name="Path" d="M48.569,0V69.831H0c0-.2.034-.408.048-.61.043-.552.086-1.1.134-1.651.053-.643.11-1.291.173-1.92s.13-1.4.2-2.093.139-1.4.221-2.1.154-1.392.24-2.083.163-1.392.254-2.083c.072-.576.149-1.147.226-1.723.11-.811.226-1.627.35-2.434a2.245,2.245,0,0,1,.053-.36A166.056,166.056,0,0,1,5.478,35.242,129.657,129.657,0,0,1,11.5,17.479,133.339,133.339,0,0,1,20.566.024Z" transform="translate(1.841 90.798)" fill="#e52d27" opacity="0.1"/>
        <path id="Shape" d="M273.717,344.122a311.063,311.063,0,0,1-76.9-20.48q-3.983-1.623-7.9-3.371c-1.739-.776-3.471-1.575-5.194-2.38q-3.877-1.835-7.685-3.76a267.791,267.791,0,0,1-32.463-19.411c-.647-.453-1.3-.887-1.938-1.368q-1.933-1.368-3.83-2.774c-.637-.453-1.27-.934-1.9-1.416l-1.311-.992c-1.3-1-2.6-2.013-3.909-2.976-1.217-.9-2.444-1.786-3.687-2.629V230.919H257.926c-.1-.3-.179-.611-.279-.919.105.308.194.616.284.919h33.548v71.409h-.005V346Q282.56,345.317,273.717,344.122Zm17.762-41.794H292l-.521.005ZM16.852,290H13.707c-.347-.01-.683-.039-1.02-.039-.542-.014-1.089-.043-1.641-.082l-1.014-.073c-.421-.029-.841-.063-1.257-.1-.878-.072-1.751-.164-2.629-.275-.346-.043-.7-.087-1.051-.14-.185-.014-.357-.039-.526-.063-.889-.121-1.757-.261-2.629-.416-.642-.1-1.289-.222-1.94-.348V231H114v45.33c-13.276-4.406-28.455-2.636-42.195.967-10.625,2.8-21.026,6.612-31.657,9.34a112.977,112.977,0,0,1-14.433,2.825l-1.2.13c-.589.058-1.172.121-1.75.169l-1.761.126h-.184a5.993,5.993,0,0,1-.778.033,2.133,2.133,0,0,1-.263,0,7.7,7.7,0,0,1-.941.039h-.031c-.447.039-.9.039-1.351.039ZM127,229V163H291v66ZM0,229V163H114v66Zm127-68V91H291v70ZM0,160V90.293H5.722V88.248H0V43.208C22.193,24.9,48.094,10.573,76.961,3.965A160.215,160.215,0,0,1,114,.008V88.252H29.214V90.3H114V160ZM127,89V1c28.946,2.482,57.162,12.489,79.914,29.072,10.949,7.962,20.749,17.4,33.017,23.506a50.465,50.465,0,0,0,20.645,5.494L290,88.61l-.4.39ZM275,56.155l.021-.019C280.947,54.024,285.642,52.6,291,52V72Z" transform="translate(62)" fill="#e52d27" opacity="0.1"/>
        <path id="Path-4" data-name="Path" d="M48.569,0V34.608H0c0-.2.034-.408.048-.61.043-.552.086-1.1.134-1.651.053-.643.11-1.291.173-1.92s.13-1.4.2-2.093.139-1.4.221-2.1.154-1.392.24-2.083.163-1.392.254-2.084c.072-.576.149-1.147.226-1.723.11-.811.226-1.627.35-2.434a2.245,2.245,0,0,1,.053-.36A166.056,166.056,0,0,1,5.478.019Z" transform="translate(1.841 126.021)" fill="#6d7bd1" opacity="0.1"/>
        <path id="Path-5" data-name="Path" d="M1,0H49.721V66.408H4.565c-.12.682-.235,1.368-.36,2.055H49.721v53.557c-.082-.024-.154-.053-.23-.082-1.287-.509-2.564-1.047-3.841-1.623l-.816-.37q-1.92-.907-3.841-1.92c-.446-.235-.893-.48-1.335-.73a79.893,79.893,0,0,1-19.145-14.959c-.163-.158-.317-.326-.48-.48-.778-.845-1.541-1.7-2.28-2.573l-.816-.96c-.874-1.071-1.719-2.17-2.54-3.284-.12-.163-.235-.326-.36-.48A71.473,71.473,0,0,1,5.78,79.629c-.067-.158-.125-.331-.187-.48Q4.6,76.6,3.841,74.012c-.221-.725-.432-1.44-.614-2.194-.067-.221-.125-.437-.178-.653C.322,60.522,0,49.466,0,38.487V34.647c0-4.441.053-8.91.13-13.375,0-1.157.048-2.309.072-3.471Q.3,13.38.49,8.958C.518,8.137.557,7.321.6,6.5A13.9,13.9,0,0,1,.672,5.094C.787,3.384.883,1.69,1,0Z" transform="translate(0.689 162.684)" fill="#e52d27" opacity="0.1"/>
        <path id="Path-6" data-name="Path" d="M36.634,20.259V80.095H0V20.259H5.223V0h21.44V20.259Z" transform="translate(62.042 80.534)" fill="#6d7bd1" opacity="0.1"/>
        <rect id="Rectangle" width="36.629" height="66.408" transform="translate(62.047 162.679)" fill="#6d7bd1" opacity="0.1"/>
        <path id="Path-7" data-name="Path" d="M0,0H36.634V55.208a95.587,95.587,0,0,1-13.178,2.8l-1.095.134c-.538.062-1.071.115-1.6.168s-1.075.091-1.608.125h-.168c-.23,0-.48.029-.706.034h-.245c-.288,0-.576.029-.864.038h0c-.408.024-.816.029-1.234.034h-3.4l-.927-.034c-.48,0-1-.053-1.5-.086h0l-.922-.067-1.147-.106c-.807-.072-1.608-.163-2.4-.274l-.96-.134-.48-.067c-.8-.125-1.594-.259-2.4-.413-.59-.1-1.176-.226-1.771-.346Z" transform="translate(62.042 231.146)" fill="#6d7bd1" opacity="0.1"/>
        <rect id="Rectangle-2" data-name="Rectangle" width="101" height="209" transform="translate(207.748 163.141)" opacity="0.071" fill="url(#linear-gradient)"/>
        <rect id="Rectangle-3" data-name="Rectangle" width="69.356" height="9.496" transform="translate(207.748 256.403)" fill="#6d7bd1" opacity="0.1"/>
        <rect id="Rectangle-4" data-name="Rectangle" width="69.356" height="9.496" transform="translate(207.748 256.403)" fill="#6d7bd1" opacity="0.1"/>
        <path id="Path-8" data-name="Path" d="M66,0V9.5H11.747q-3.533-2.7-6.98-5.54C3.178,2.645,1.6,1.3,0,0Z" transform="translate(211.104 285.255)" fill="#6d7bd1" opacity="0.1"/>
        <path id="Path-9" data-name="Path" d="M24.656.014V9.5H18.929Q9.275,5.146,0,0Z" transform="translate(252.443 314.088)" fill="#6d7bd1" opacity="0.1"/>
        <path id="Shape-2" data-name="Shape" d="M0,7.811V0H46.725V7.811Z" transform="translate(3.685 143.562)" fill="#6d7bd1" opacity="0.1"/>
        <path id="Shape-3" data-name="Shape" d="M0,7.811V0H46.725V7.811Z" transform="translate(3.685 166.289)" fill="#6d7bd1" opacity="0.1"/>
        <path id="Shape-4" data-name="Shape" d="M0,7.826V0H46.725V7.826Z" transform="translate(3.685 189.025)" fill="#6d7bd1" opacity="0.1"/>
        <path id="Shape-5" data-name="Shape" d="M0,7.8V0H46.725V7.8Z" transform="translate(3.685 211.761)" fill="#6d7bd1" opacity="0.1"/>
        <path id="Shape-6" data-name="Shape" d="M2.592,7.8c-.062-.149-.124-.322-.187-.481H4.46V.49H.619v1.7C.4,1.469.187.734,0,0H46.524V7.8Z" transform="translate(3.886 234.492)" fill="#6d7bd1" opacity="0.1"/>
        <path id="Shape-7" data-name="Shape" d="M6.485,7.791c-.177-.153-.326-.321-.48-.48H7.561V.461H3.721V4.719c-.278-.307-.547-.634-.821-.959V.48H.36C.235.327.12.154,0,0H35.689V7.791Z" transform="translate(14.736 257.228)" fill="#6d7bd1" opacity="0.1"/>
      </g>
      <g id="undraw_doctor_kw5l" transform="translate(813.248 -9239.221)">
        <path id="Path-10" data-name="Path" d="M44.571,61.714S24.7,46.741,20.947,27.7A37.613,37.613,0,0,0,9.31,6.914,63.571,63.571,0,0,0,0,0" transform="translate(12.571 201.143)" fill="none" stroke="#535461" stroke-miterlimit="10" stroke-width="2.286"/>
        <path id="Path-11" data-name="Path" d="M9.944,2.2c1.809,2.416,2.628,12.655,2.628,12.655S2.9,11.1,1.084,8.684A5.4,5.4,0,0,1,2.231,1.07,5.561,5.561,0,0,1,9.944,2.2Z" transform="translate(0 186.286)" fill="#88d06d"/>
        <path id="Path-12" data-name="Path" d="M10.281,5.055C10.456,8.067,5.84,17.143,5.84,17.143S.185,8.752.007,5.74A5.357,5.357,0,0,1,4.823.011a5.26,5.26,0,0,1,5.454,5.044Z" transform="translate(16 192)" fill="#88d06d"/>
        <path id="Path-13" data-name="Path" d="M9.781,7.325C8.518,9.845.3,14.857.3,14.857S-.581,5.251.682,2.731a5.1,5.1,0,0,1,9.1,4.594Z" transform="translate(33.143 212.571)" fill="#88d06d"/>
        <path id="Path-14" data-name="Path" d="M10.058,7.244c-.835,2.958-8.2,9.9-8.2,9.9S-.665,6.927.169,3.965A5.112,5.112,0,0,1,6.626.247a5.7,5.7,0,0,1,3.432,7Z" transform="translate(41.143 232)" fill="#88d06d"/>
        <path id="Path-15" data-name="Path" d="M4.741,10.26c2.98.379,12.4-3.629,12.4-3.629S9.193.426,6.2.046A5.42,5.42,0,0,0,.049,4.467,5.218,5.218,0,0,0,4.741,10.26Z" transform="translate(8 205.714)" fill="#88d06d"/>
        <path id="Path-16" data-name="Path" d="M6.448,10.2c2.984-.481,10.695-6.96,10.695-6.96S7.571-.438,4.59.043A5.41,5.41,0,0,0,.342,3.337a4.92,4.92,0,0,0,.937,5.105A5.668,5.668,0,0,0,6.456,10.2Z" transform="translate(17.143 228.571)" fill="#88d06d"/>
        <path id="Path-17" data-name="Path" d="M5.439,10.286c3,0,11.7-5.146,11.7-5.146S8.438,0,5.435,0A5.3,5.3,0,0,0,0,5.143a5.3,5.3,0,0,0,5.435,5.143Z" transform="translate(30.857 250.286)" fill="#88d06d"/>
        <path id="Path-18" data-name="Path" d="M0,52.571S12.367,30.81,31.008,24.541A38.11,38.11,0,0,0,50.313,10.194,63.419,63.419,0,0,0,56,0" transform="translate(250.286 80)" fill="none" stroke="#535461" stroke-miterlimit="10" stroke-width="2.286"/>
        <path id="Path-19" data-name="Path" d="M12.138,8.619C9.992,10.561,0,12.571,0,12.571S2.453,3.31,4.6,1.365a5.693,5.693,0,0,1,7.587.17A4.818,4.818,0,0,1,12.138,8.619Z" transform="translate(306.286 67.429)" fill="#6d7bd1"/>
        <path id="Path-20" data-name="Path" d="M12.619,10.225C9.639,10.78,0,7.334,0,7.334S7.526.666,10.488.122a5.677,5.677,0,0,1,5.271,1.6,4.926,4.926,0,0,1,1.08,5.117,5.39,5.39,0,0,1-4.219,3.381Z" transform="translate(300.571 83.429)" fill="#6d7bd1"/>
        <path id="Path-21" data-name="Path" d="M8.966,9.979C6.226,9.048,0,1.472,0,1.472S9.656-.7,12.4.232a5.189,5.189,0,0,1,3.5,3.9,5.107,5.107,0,0,1-1.732,4.911,5.323,5.323,0,0,1-5.2.937Z" transform="translate(283.429 102.857)" fill="#6d7bd1"/>
        <path id="Path-22" data-name="Path" d="M10.743,10.22C7.755,9.757,0,3.317,0,3.317S9.559-.423,12.544.04a5.2,5.2,0,0,1,4.526,5.925,5.461,5.461,0,0,1-6.307,4.251Z" transform="translate(262.857 113.143)" fill="#6d7bd1"/>
        <path id="Path-23" data-name="Path" d="M0,5.519C0,8.5,5.144,17.143,5.144,17.143s5.14-8.633,5.14-11.609A5.458,5.458,0,0,0,7.756.746a4.927,4.927,0,0,0-5.214,0A5.458,5.458,0,0,0,.014,5.534Z" transform="translate(292.571 77.714)" fill="#6d7bd1"/>
        <path id="Path-24" data-name="Path" d="M.179,6.7C1.037,9.489,8.488,16,8.488,16S10.967,6.326,10.1,3.534A5.178,5.178,0,0,0,3.646.243,5.311,5.311,0,0,0,.187,6.7Z" transform="translate(270.857 89.143)" fill="#6d7bd1"/>
        <path id="Path-25" data-name="Path" d="M.064,6.281C.442,9.24,6.64,17.143,6.64,17.143s4-9.338,3.621-12.308A5.405,5.405,0,0,0,7.14.424a4.928,4.928,0,0,0-5.17.733A5.582,5.582,0,0,0,.064,6.281Z" transform="translate(251.429 106.286)" fill="#6d7bd1"/>
        <path id="Path-26" data-name="Path" d="M12.138,8.619C9.992,10.561,0,12.571,0,12.571S2.453,3.31,4.6,1.365a5.693,5.693,0,0,1,7.587.17A4.818,4.818,0,0,1,12.138,8.619Z" transform="translate(306.286 67.429)" fill="#88d16d" opacity="0.25"/>
        <path id="Path-27" data-name="Path" d="M12.619,10.225C9.639,10.78,0,7.334,0,7.334S7.526.666,10.488.122a5.677,5.677,0,0,1,5.271,1.6,4.926,4.926,0,0,1,1.08,5.117,5.39,5.39,0,0,1-4.219,3.381Z" transform="translate(300.571 83.429)" fill="#88d16d" opacity="0.25"/>
        <path id="Path-28" data-name="Path" d="M8.966,9.979C6.226,9.048,0,1.472,0,1.472S9.656-.7,12.4.232a5.189,5.189,0,0,1,3.5,3.9,5.107,5.107,0,0,1-1.732,4.911,5.323,5.323,0,0,1-5.2.937Z" transform="translate(283.429 102.857)" fill="#88d16d" opacity="0.25"/>
        <path id="Path-29" data-name="Path" d="M10.743,10.22C7.755,9.757,0,3.317,0,3.317S9.559-.423,12.544.04a5.2,5.2,0,0,1,4.526,5.925,5.461,5.461,0,0,1-6.307,4.251Z" transform="translate(262.857 113.143)" opacity="0.25"/>
        <path id="Path-30" data-name="Path" d="M0,5.519C0,8.5,5.144,17.143,5.144,17.143s5.14-8.633,5.14-11.609A5.458,5.458,0,0,0,7.756.746a4.927,4.927,0,0,0-5.214,0A5.458,5.458,0,0,0,.014,5.534Z" transform="translate(292.571 77.714)" fill="#88d16d" opacity="0.25"/>
        <path id="Path-31" data-name="Path" d="M.179,6.7C1.037,9.489,8.488,16,8.488,16S10.967,6.326,10.1,3.534A5.178,5.178,0,0,0,3.646.243,5.311,5.311,0,0,0,.187,6.7Z" transform="translate(270.857 89.143)" opacity="0.25"/>
        <path id="Path-32" data-name="Path" d="M.064,6.281C.442,9.24,6.64,17.143,6.64,17.143s4-9.338,3.621-12.308A5.405,5.405,0,0,0,7.14.424a4.928,4.928,0,0,0-5.17.733A5.582,5.582,0,0,0,.064,6.281Z" transform="translate(251.429 106.286)" opacity="0.25"/>
        <path id="Path-33" data-name="Path" d="M0,70.857s2.427-24.97,16.878-38.248A38.025,38.025,0,0,0,28.661,11.641,63.663,63.663,0,0,0,29.714,0" transform="translate(251.429 61.714)" fill="none" stroke="#535461" stroke-miterlimit="10" stroke-width="2.286"/>
        <path id="Path-34" data-name="Path" d="M9.909,7.33C8.856,10.065.979,16,.979,16S-.712,6.076.351,3.341A5.1,5.1,0,0,1,7.061.39,5.407,5.407,0,0,1,9.909,7.341Z" transform="translate(280 45.714)" fill="#88d16d"/>
        <path id="Path-35" data-name="Path" d="M12.464,10.222C10.055,11.991,0,12.571,0,12.571S3.917,2.879,6.326,1.111A5.147,5.147,0,0,1,11.718.494,5.567,5.567,0,0,1,14.84,5.126a5.658,5.658,0,0,1-2.376,5.092Z" transform="translate(280 61.714)" fill="#88d16d"/>
        <path id="Path-36" data-name="Path" d="M12.15,10.276c-3,.238-12.15-4.2-12.15-4.2S8.239.257,11.237.018a5.365,5.365,0,0,1,5.886,4.695,5.241,5.241,0,0,1-4.973,5.556Z" transform="translate(269.714 86.857)" fill="#88d16d"/>
        <path id="Path-37" data-name="Path" d="M12.98,10.176C10.008,10.88,0,7.968,0,7.968S7.218.885,10.19.167a5.6,5.6,0,0,1,6.774,3.707,5.15,5.15,0,0,1-3.984,6.3Z" transform="translate(256 105.143)" fill="#6d7bd1"/>
        <path id="Path-38" data-name="Path" d="M.394,7.5C1.547,10.236,9.607,16,9.607,16s1.37-10.146.218-12.886A5.054,5.054,0,0,0,3.071.466,5.539,5.539,0,0,0,.394,7.507Z" transform="translate(268.571 62.857)" fill="#88d16d"/>
        <path id="Path-39" data-name="Path" d="M1.334,8.714c1.885,2.164,11.237,5,11.237,5S10.993,3.994,9.108,1.83A5.155,5.155,0,0,0,.266,3.566,5.25,5.25,0,0,0,1.334,8.714Z" transform="translate(253.714 82.286)" fill="#6d7bd1"/>
        <path id="Path-40" data-name="Path" d="M.7,7.923c1.565,2.486,10.726,6.935,10.726,6.935s.078-9.982-1.477-12.472A5.5,5.5,0,0,0,2.582.784,5.216,5.216,0,0,0,.721,7.923Z" transform="translate(243.429 105.143)" fill="#6d7bd1"/>
        <path id="Path-41" data-name="Path" d="M0,6.857C.375,4.585.827,2.3,1.143,0,.763,2.3.309,4.593,0,6.857Z" transform="translate(233.143 28.571)" fill="url(#linear-gradient-2)"/>
        <path id="Shape-8" data-name="Shape" d="M119.749,284.571c-.689-16.532-1.48-39.02-.795-41.448,1.089-3.873,3.267-17.918,3.267-17.918l.239-6.664s0-5.326.145-11.682c.014-.628.029-1.273.048-1.92-6.425.7-17.957.764-17.957.764s-9.615-7.2-12.047-12.584c-.675-1.5-.795-2.85,0-3.88,3.631-4.722,2.542-21.2,2.542-21.2a1.783,1.783,0,0,1,0-.2c.014-.2.043-.465.09-.781a88.357,88.357,0,0,0-4.6-8.832,4.963,4.963,0,0,1-.5-.934c-1.473-3.505-1.118-11.14,5.154-18.776a7.079,7.079,0,0,1,7.085-6.8,6.857,6.857,0,0,1,.769.043c.121-.043.24-.08.364-.116,3.154-12.573,5.989-23.546,5.989-23.546l3.772-9.235,10.468-6.377,19.35-11.634a29.81,29.81,0,0,1,10.141-5.8,13.429,13.429,0,0,1,6.821-.455,8.858,8.858,0,0,1,1.048.3,4.243,4.243,0,0,0,.475-.549l.526.484.527.545c-.193-.313-.4-.633-.617-.946s-.454-.633-.689-.945h-.726c-.526,0-1.045-.014-1.561-.04A30.275,30.275,0,0,1,130.442,46.3a28.966,28.966,0,0,1-.153-3,29.773,29.773,0,0,1,.668-6.294.447.447,0,0,1,0-.1c.094-.458.207-.913.327-1.36.055-.2.105-.378.164-.563.036-.112.068-.229.1-.337a10.537,10.537,0,0,1-2.65-1.033,7.7,7.7,0,0,1-1.794-1.392,7.483,7.483,0,0,1-1.579-2.585,8.564,8.564,0,0,1-.305-1.055,9.335,9.335,0,0,1,.2-4.781,13.8,13.8,0,0,1,5.444-6.985c2.428-1.7,5.34-2.93,6.966-5.392a44.675,44.675,0,0,0,2.011-4.239C142.13,2.74,147.295.315,152.315.034s9.927,1.182,14.7,2.789S176.565,6.2,181.581,6.51c2.236.139,4.563,0,6.639.844,2.794,1.112,4.621,3.806,5.858,6.544a21.984,21.984,0,0,1,2.12,9.868,25.377,25.377,0,0,1-.791,4.978.271.271,0,0,1,0,.054c-.816,3.28-2.021,6.538-2.508,9.759a14.377,14.377,0,0,0,.32,6.418c.487,1.6,1.336,3.239,1.184,4.85a3.122,3.122,0,0,0,.327-.469,3.739,3.739,0,0,1-.153,1.192,3.488,3.488,0,0,1-.686,1.265,4.782,4.782,0,0,1-1.673,1.225,5.337,5.337,0,0,1,.784.1,3.526,3.526,0,0,1,.65.178,2.21,2.21,0,0,1,.261.12,1.711,1.711,0,0,1,.327.233,1.157,1.157,0,0,1,.247.312,2.06,2.06,0,0,1,.239.175,1.046,1.046,0,0,1,.33.506,5.4,5.4,0,0,1,.831,1.9c3.506-.32,8.341.043,9.906,4.043.218.545.454,1.236.7,2.036.925,2.57,2.182,7.279,3.43,12.326,4.094.811,15.492,3.378,16.189,6.955.859,4.363,19.237,10.181,19.237,10.181.243,2.909,4.744,4.868,4.744,4.868s6.813,17.935,4.987,24.945,4.872,24.574,4.872,24.574,3.4,24.7,5.11,27S270.782,185,267,191.938c0,0-1.212,3.756-.487,5.326.421.877-1.292,3.658-2.9,5.985l-.048.066c-1.3,1.858-2.511,3.4-2.511,3.4s-8.153,7.271-9.855,8.362c-1.238.793-6.338,5.618-10.2,8.232a.077.077,0,0,1-.029,0,8.4,8.4,0,0,1-3.524,1.679,3.936,3.936,0,0,0-3.1,1.912,6.977,6.977,0,0,0-.795,1.589c-.084.226-.12.364-.12.364h-.134l-1.481.051-.824.029c-.022.56-.022,1.131-.022,1.716a.053.053,0,0,0,0,.047,78.139,78.139,0,0,0,1.855,14.38s1.884,29.715.548,39.5ZM5.372,284.553c.777-1.858,1.375-3.105,1.375-3.105s6.592-28.661,10.69-44.3a.24.24,0,0,0,0-.036q.512-1.92.958-3.559a45.137,45.137,0,0,1-6.508,4.577c-2.9,1.709-6.323,3.272-9.55,2.948A7.564,7.564,0,0,1,0,240.48a.032.032,0,0,0,.025-.03H0c2.472-2.868,3.1-6.788,3.63-10.5q2.178-15.212,4.356-30.424.864-6.062,1.727-12.111c1.085-7.584,2.174-15.252,1.5-22.887-.493-5.621-1.884-11.595.57-16.685,1.3-2.7,3.594-4.934,4.32-7.843.588-2.356.04-4.865.428-7.271a12.315,12.315,0,0,1,1.07-3.153c.149-.328.327-.654.512-.982a15.01,15.01,0,0,1,1.089-1.69l.156-.207c.239-.3.476-.582.726-.855l-.309-.095a3.971,3.971,0,0,1-2.073-1.294.021.021,0,0,1,0,.018c-.018-.029-.04-.05-.061-.08a.052.052,0,0,0-.019-.025c1.517-.978,1.794-3.134,1.18-4.839-.025-.073-.054-.146-.084-.218a15.716,15.716,0,0,0-3.437-4.414c-.334-.364-.657-.727-.962-1.091a7.026,7.026,0,0,1-1.713-3.719c-.312-3.538,3.245-6.29,3.873-9.788.632-3.56-1.873-7.013-1.677-10.616.239-4.36,4.258-7.537,8.225-9.355a37.622,37.622,0,0,1,19.175-3.272c5.333.5,10.526,2.152,15.859,2.792,3.216.382,6.476.4,9.673.964a15.585,15.585,0,0,1,8.642,4.08,7.477,7.477,0,0,1,2.335,4.6v.036a7.24,7.24,0,0,1,0,.884c-.1,2.324-1.34,4.6-2.389,6.985.2.225.414.473.591.694s.356.447.523.673a26.8,26.8,0,0,1-11.659,41.139l-.189.073c-.49.189-.987.367-1.491.527-.153.523-.3,1.054-.439,1.592-.087.331-.175.658-.251,1s-.17.672-.247,1.018c-.809,3.443-1.43,6.978-1.9,10.108.381.123.766.251,1.129.382A52.938,52.938,0,0,1,77.278,162.4l-.03.458.03.025-.069.989-.029.465-.527,7.737c.08.17.341.756.7,1.624a.218.218,0,0,1,.026.066c2.236,5.185,8.631,20.354,10.163,25.858a4.691,4.691,0,0,1,.294,1.92c-.734,1.93,5.6,26.142,5.6,26.142s3.187,12.688,6.235,27.09h.1l1.119-.148c.12.567.239,1.134.363,1.708.486,2.3.966,4.636,1.43,6.974a90.385,90.385,0,0,1,1.51,16.768l.352.506c.871,1.123,1.985,2.516,3.183,3.97Z" transform="translate(38.857)" fill="url(#linear-gradient-3)"/>
        <path id="Path-42" data-name="Path" d="M16.133,1.924l-2.146.958S0,57.834,0,62.275,29.658,91.429,29.658,91.429l4.628-31.588S27.641-12.6,16.133,1.924Z" transform="translate(134.857 107.429)" fill="#e8f5ff"/>
        <path id="Path-43" data-name="Path" d="M24.486,43.429l-12.529-6.6a25.457,25.457,0,0,0-3.674-8.45A18.712,18.712,0,0,0,.976,21.714C-6.7,18.239,33.446,0,33.446,0a66.356,66.356,0,0,0,2.231,6.461c2.068,5.154,5.5,11.819,9.922,13.717C53.117,23.408,24.486,43.429,24.486,43.429Z" transform="translate(192 48)" fill="#ffc1c7"/>
        <path id="Path-44" data-name="Path" d="M35.429,6.5a29.871,29.871,0,0,1-27.2,22.067,18.678,18.678,0,0,0-7.257-6.71C-6.654,18.363,33.213,0,33.213,0a67.436,67.436,0,0,0,2.215,6.5Z" transform="translate(192 48)" opacity="0.1"/>
        <path id="Path-45" data-name="Path" d="M59.428,29.707A29.574,29.574,0,1,1,50.765,8.661a29.714,29.714,0,0,1,8.663,21.046Z" transform="translate(170.286 16)" fill="#ffc1c7"/>
        <path id="Path-46" data-name="Path" d="M45.714,5.527,37.447,24.873,30.154,37.714H6.809L0,20.158,2.76,1.951H20.589L32.1,1.3,35.988,0l2.507,1.426,7.22,4.1Z" transform="translate(188.571 82.286)" fill="#e52d27"/>
        <path id="Path-47" data-name="Path" d="M20.014.013s5.157,1.075.539,4.779S0,20.271,0,20.271s5.6,4.875,4.439,10.586L22.983,20.748l3.3-16.175S26.652-.288,20.014.013Z" transform="translate(211.429 62.857)" opacity="0.1"/>
        <path id="Path-48" data-name="Path" d="M15.286,0,3.64,1.925s2.4,8.9,1.2,11.429a1.7,1.7,0,0,0-.09.243L0,26.466,3.561,36.571,15.886,19.729l-4.2-6.374s4.44-5.9,7.082-7.941S15.286,0,15.286,0Z" transform="translate(198.857 83.429)" opacity="0.1"/>
        <path id="Path-49" data-name="Path" d="M15.286,0,3.64,1.922s2.4,8.9,1.2,11.43a1.7,1.7,0,0,0-.09.243L0,26.465,3.561,36.571,15.886,19.716l-4.2-6.375s4.44-5.9,7.082-7.942S15.286,0,15.286,0Z" transform="translate(198.857 82.286)" fill="#dce6f2"/>
        <path id="Path-50" data-name="Path" d="M20.135.013s5.064,1.076.525,4.779S0,21.224,0,21.224s5.97,3.926,4.837,9.634L23.043,20.75,26.282,4.574S26.642-.288,20.135.013Z" transform="translate(211.429 61.714)" fill="#e52d27"/>
        <path id="Path-51" data-name="Path" d="M13.421,0s1.11,2.189,6.007,6.135c0,0-8.155,4.575-5.035,11.008L1.919,13.711,0,7.386Z" transform="translate(187.429 77.714)" opacity="0.1"/>
        <path id="Path-52" data-name="Path" d="M13.42,0s1.11,2.189,6.009,6.136c0,0-8.156,4.554-5.036,11.007L1.92,13.71,0,7.387Z" transform="translate(187.429 77.714)" fill="#e52d27"/>
        <path id="Path-53" data-name="Path" d="M45.714,4,37.447,22.892,30.168,35.429H6.809L0,18.288,2.756.513H7.714C7.634,4.661,9.18,9.533,9.081,11.345c-.169,2.978,4.537,19.045,4.537,19.045S23.465,14.8,27.354,13.409C29.8,12.537,34.977,5.282,38.491,0Z" transform="translate(188.571 84.571)" opacity="0.1"/>
        <path id="Path-54" data-name="Path" d="M116.95,112.053l-.83,1.048s6.012,30.3,4.349,37.182a19.614,19.614,0,0,0-.482,3.777v.055c-.294,7,1.812,16.088,1.812,16.088s1.681,26.782.725,37.8H9.958c-.66-16.288-1.37-37.39-.725-39.73C10.321,164.41,12.5,150.4,12.5,150.4l.239-6.637s0-6.415.2-13.562c.083-3.213.207-6.586.384-9.578a50.769,50.769,0,0,1,.986-8.49,18.792,18.792,0,0,0,.464-3.6,1.866,1.866,0,0,1,.022-.346c0-.364.036-.757.051-1.161v-.364c.069-2.343.043-5.124-.033-8.006v-.477c-.062-2.162-.152-4.367-.254-6.463-.315-6.55-.725-12.088-.725-12.088L0,33.642l3.725-9.214,10.339-6.361L33.18,6.478C42.5-1.219,48.643-.294,50.984.55a6.175,6.175,0,0,1,.667.273c.072.036.13.066.185.1a1.531,1.531,0,0,1,.214.124h0a4.418,4.418,0,0,0-1.623,1.343,5.95,5.95,0,0,0-1,2.183,10.2,10.2,0,0,0-.257,1.488c-.047.528-.065,1.073-.065,1.623a28.265,28.265,0,0,0,.308,3.6v.08c.12.852.268,1.685.413,2.467a.164.164,0,0,0,0,.04c.167.913.333,1.758.446,2.485.022.131.04.251.058.364a8.348,8.348,0,0,1,.112,1.456,17.758,17.758,0,0,0,.471,3.493c.094.48.2.993.323,1.528.163.728.341,1.521.533,2.329.105.444.217.9.333,1.357.043.182.091.364.134.549l.072.287c.772,3.082,1.609,6.15,2.124,8.006.3,1.092.5,1.765.5,1.765a135.874,135.874,0,0,1,9.813-13.9c.065-.073.123-.142.185-.207.431-.5.855-.953,1.261-1.354a7.451,7.451,0,0,1,2.327-1.754,2.532,2.532,0,0,0,.4-.186c1.783-1.015,4.66-4.7,7.353-8.562.265-.364.522-.761.783-1.135.6-.866,1.178-1.736,1.725-2.569.42-.637.823-1.255,1.2-1.845C81.78,3.141,83.055,1.03,83.055,1.03L85.57.917,86.009.9H86.3L97.721.364s.493.084,1.3.247a.231.231,0,0,1,.134.029c4.051.808,15.307,3.366,16,6.914.841,4.345,19,10.142,19,10.142.239,2.911,4.686,4.829,4.686,4.829s6.733,17.867,4.932,24.868c-1.779,6.914,4.631,24.017,4.8,24.5h0l-1.228,1.557Z" transform="translate(148.571 76.571)" fill="#e8f5ff"/>
        <path id="Path-55" data-name="Path" d="M15.053.758s10.963-3.121,13.455,3.3,8.064,32.369,8.064,32.369-14.47,2.737-18.262,0a10.9,10.9,0,0,0-7.71-2.023L2.416,40,0,39.283S13.09,19.755,15.935,13.119,19.742,3.516,15.053.758Z" transform="translate(216 60.571)" opacity="0.1"/>
        <path id="Path-56" data-name="Path" d="M15.037.758s10.969-3.121,13.471,3.3,8.063,32.369,8.063,32.369-14.465,2.737-18.261,0A10.887,10.887,0,0,0,10.6,34.408L2.416,40,0,39.283S13.089,19.755,15.934,13.119,19.726,3.523,15.037.758Z" transform="translate(214.857 59.429)" fill="#e8f5ff"/>
        <path id="Path-57" data-name="Path" d="M.131,0S8.5,2.024,10.074,6.667s-6.183,4.762-6.183,4.762S-.838,3.215.131,0Z" transform="translate(155.429 164.571)" opacity="0.1"/>
        <path id="Path-58" data-name="Path" d="M17.143,0S-4.185,42.565.738,46.626,17.143,0,17.143,0Z" transform="translate(170.286 198.857)" opacity="0.1"/>
        <path id="Path-59" data-name="Path" d="M0,0S15.8,40.18,12.641,46.385s6.788,0,6.788,0Z" transform="translate(214.857 168)" opacity="0.1"/>
        <path id="Path-60" data-name="Path" d="M41.507,0s-54.5,2.639-38.6,19.668,48.522.723,48.522.723Z" transform="translate(195.429 209.143)" fill="#ffc1c7"/>
        <path id="Path-61" data-name="Path" d="M59.429,30.5a30.63,30.63,0,0,1-2.29,11.663c-.508.059-1.015.1-1.5.118-.731-1.619-.34-3.489-.325-5.271s-.636-3.877-2.334-4.356c-3.386-.963-5.724,5.43-9.063,4.275-2.557-.878-1.889-4.8-3.361-7.056-1.165-1.789-3.5-2.294-5.315-3.416-3.861-2.394-3.744-6.223-5.538-9.845-1.878-3.8-5.845-2.674-9.289-.435-2.615,1.7-4.873,3.987-7.671,5.345A18.82,18.82,0,0,1,4.909,23.2,17.042,17.042,0,0,1,0,22.674,30.19,30.19,0,0,1,59.425,30.5Z" transform="translate(170.286 16)" opacity="0.1"/>
        <path id="Path-62" data-name="Path" d="M26.632,28.014c-2.616,1.677-4.866,3.92-7.661,5.263a19.088,19.088,0,0,1-7.817,1.641c-3.283.073-6.818-.5-9.061-2.86A8.664,8.664,0,0,1,.411,23.673,13.627,13.627,0,0,1,5.829,16.73c2.455-1.717,5.3-2.9,6.931-5.361a43.237,43.237,0,0,0,1.992-4.214c2.287-4.424,7.431-6.82,12.4-7.117s9.9,1.176,14.635,2.773S51.3,6.165,56.293,6.5c2.225.138,4.538,0,6.6.838,2.776,1.121,4.6,3.8,5.837,6.533a21.749,21.749,0,0,1,2.108,9.8c-.306,7.175-5.071,14.217-2.977,21.091.554,1.833,1.594,3.713,1.04,5.546-.81,2.675-4.279,3.285-7.084,3.412-.73-1.593-.339-3.437-.325-5.186s-.635-3.815-2.327-4.286c-3.385-.94-5.72,5.339-9.047,4.207-2.535-.867-1.879-4.718-3.352-6.943-1.164-1.764-3.5-2.258-5.308-3.361-3.856-2.356-3.739-6.123-5.53-9.687C34.041,24.7,30.076,25.808,26.632,28.014Z" transform="translate(164.571 3.429)" fill="#242324"/>
        <path id="Path-63" data-name="Path" d="M5.821,5.41l-2.751.984S4.151,23.091.546,27.879,12.386,44.571,12.386,44.571s21.172-.122,21.771-1.85-1.082-30.935-1.082-30.935S21.71,7.242,22.666,0c0,0-3.469,17.063-8.61,16.326S3.077,11.183,5.821,5.41Z" transform="translate(131.429 163.429)" fill="#e8f5ff"/>
        <ellipse id="Oval" cx="7.429" cy="6.857" rx="7.429" ry="6.857" transform="translate(139.429 171.429)" opacity="0.1"/>
        <path id="Path-64" data-name="Path" d="M26.286,35.326S24.8-8.309,11.851,1.413-1.222,22.762,1.243,26.2s10.37,20.631,10.37,20.631h0a9.369,9.369,0,0,0,8.211.423A8.778,8.778,0,0,0,25,41.109Z" transform="translate(128 133.714)" fill="#ffc1c7"/>
        <path id="Path-65" data-name="Path" d="M98.531,1.16a1.07,1.07,0,0,0-.328-.5C97.577.087,96.23-.114,94.2.061l.084.961c2.709-.233,3.244.306,3.313.4v.091l.084.12a4.059,4.059,0,0,1,.728,3.2c-.593,2.966-4.238,5.327-4.274,5.352l-.087.051-.055.084C92.418,12.651,83.523,19.233,81.2,20.936l-.2-.233c-1.041.9-10.195,8.911-10.69,11.979-.32,1.925-2.49,2.671-3.277,2.878A20.567,20.567,0,0,1,62.1,30.386c-1.314-2.26,3.976-6.67,4.442-8.391l-.728-.746c-.076.277-6.87,6.622-4.981,9.864a21.606,21.606,0,0,0,5.25,5.564c-.309,2.809-2.236,19.3-5.2,23.211-3.677,4.858-6.769,29.339-6.426,37.886.3,7.594-1.682,21.938-8.309,28.1a10.625,10.625,0,0,1-8.764,2.911h-.16a25.871,25.871,0,0,1-17.782-5.822C12.838,117.4,9.095,108.337,8.315,96h-.16L8.09,92.411a7.009,7.009,0,1,0-1.045.084h.08l.066,3.57-.32.022c.8,12.735,4.733,22.156,11.651,27.974a26.954,26.954,0,0,0,18.791,6.146,13.527,13.527,0,0,0,1.456.08,11.946,11.946,0,0,0,8.374-3.366c6.98-6.5,9.1-21.366,8.771-29.219-.364-9.057,2.88-32.657,6.135-36.954C65.238,56.53,67.171,40.1,67.51,36.914c1.154-.324,3.765-1.346,4.209-4,.32-1.921,6.434-7.841,10.195-11.12L81.8,21.66a141.68,141.68,0,0,0,11.44-9.126c.968-.928,1.93-1.856,2.935-2.74a9.389,9.389,0,0,0,3.149-4.778A4.964,4.964,0,0,0,98.531,1.16Z" transform="translate(136 56)" opacity="0.1"/>
        <path id="Path-66" data-name="Path" d="M5.992,16A22.623,22.623,0,0,1,.334,10.06C-1.572,6.753,5.3.282,5.37,0l.736.761C5.639,2.513.29,7.016,1.619,9.318a21.485,21.485,0,0,0,5.238,5.476Z" transform="translate(195.429 76.571)" fill="#353146"/>
        <path id="Path-67" data-name="Path" d="M.586,21.714,0,20.947c.12-.082,11.929-8.2,13.79-10.82l.06-.079.086-.054c.038-.025,3.8-2.339,4.414-5.253A3.807,3.807,0,0,0,17.6,1.6l-.086-.121V1.4c-.075-.093-.628-.618-3.425-.389L14,.06c2.1-.171,3.489.025,4.135.586a1.068,1.068,0,0,1,.342.5,4.685,4.685,0,0,1,.85,3.789,9.149,9.149,0,0,1-3.252,4.689c-1.034.868-2.03,1.785-3.026,2.689C9.271,15.747,1,21.432.586,21.714Z" transform="translate(214.857 56)" fill="#e8f5ff"/>
        <path id="Rectangle-5" data-name="Rectangle" d="M.091,0h.961V5.855H.091Z" transform="translate(141.852 147.051) rotate(-1.05)" fill="#e8f5ff"/>
        <circle id="Oval-2" data-name="Oval" cx="7.429" cy="7.429" r="7.429" transform="translate(134.857 133.714)" fill="#6d7bd1"/>
        <circle id="Oval-3" data-name="Oval" cx="5.714" cy="5.714" r="5.714" transform="translate(136 134.857)" fill="#e8f5ff"/>
        <path id="Path-68" data-name="Path" d="M32.057,109.714a13.65,13.65,0,0,1-1.464-.076,27.2,27.2,0,0,1-18.885-6.152C4.757,97.657.812,88.237,0,75.476l1.464-.091c.783,12.349,4.545,21.43,11.19,26.989A26.175,26.175,0,0,0,30.521,108.2h.161a10.726,10.726,0,0,0,8.811-2.914c6.656-6.167,8.65-20.527,8.346-28.129-.366-8.564,2.741-33.072,6.44-37.931,3.238-4.258,5.247-23.452,5.269-23.645l.055-.546.542-.095c.033,0,3.194-.6,3.59-2.951C64.246,8.925,73.431.907,74.474,0l.955,1.093C71.634,4.371,65.49,10.3,65.183,12.228c-.446,2.666-3.07,3.686-4.226,4.007-.366,3.191-2.294,19.638-5.489,23.86-3.271,4.3-6.531,27.928-6.166,37,.315,7.861-1.8,22.752-8.811,29.251A12.034,12.034,0,0,1,32.057,109.714Z" transform="translate(141.714 76.571)" fill="#353146"/>
        <g id="Group" transform="translate(164.571 26.286)" opacity="0.1">
          <path id="Path-69" data-name="Path" d="M0,6.643C.6,4.443,1.322,2.229,1.826,0,1.224,2.24.5,4.443,0,6.643Z" transform="translate(68.688 4.781)"/>
          <path id="Path-70" data-name="Path" d="M62.359,28.617c-.73-1.594-.34-3.438-.325-5.188s-.636-3.8-2.33-4.287c-3.389-.94-5.727,5.344-9.058,4.207-2.557-.868-1.881-4.719-3.357-6.945-1.165-1.764-3.5-2.258-5.311-3.362-3.864-2.356-3.747-6.124-5.537-9.689C34.561-.385,30.6.719,27.15,2.926,24.531,4.6,22.278,6.85,19.48,8.19a19.128,19.128,0,0,1-7.827,1.641c-3.269.076-6.826-.5-9.073-2.861A8.394,8.394,0,0,1,.582,0C.52.171.465.341.411.512A8.682,8.682,0,0,0,2.094,8.9c2.246,2.36,5.8,2.933,9.073,2.861A19.145,19.145,0,0,0,19,10.118c2.805-1.343,5.059-3.587,7.67-5.264,3.448-2.207,7.414-3.311,9.292.428,1.79,3.565,1.676,7.333,5.537,9.689,1.826,1.089,4.146,1.6,5.314,3.362,1.461,2.233.814,6.077,3.357,6.945,3.327,1.133,5.665-5.148,9.054-4.207,1.695.472,2.349,2.541,2.33,4.287s-.4,3.594.325,5.188c2.809-.127,6.282-.726,7.1-3.412a3.888,3.888,0,0,0,.153-1.187C67.94,27.982,64.887,28.5,62.359,28.617Z" transform="translate(0.218 0.094)"/>
        </g>
        <path id="Path-71" data-name="Path" d="M60.3,41.038l4.246,4.474s3.4,24.652,5.095,26.958,5.705,11.479,1.942,18.368c0,0-1.214,3.749-.486,5.319s-5.457,9.428-5.457,9.428-8.13,7.249-9.831,8.339-10.676,9.789-13.708,9.909-4.023,3.869-4.023,3.869l-17.109.6s-9.451-.492-11.506.838c0,0,1.1-14.382-9.462-23.81L13.466,100.5s5.1-2.186,6.675-4.47a8.237,8.237,0,0,1,4.023-3.02s3.76-2.659,3.88-4.109,4.6-3.228,4.6-3.228L30.107,64.123l1.335-35.774S35.689-1.625,44.667.069,60.3,41.038,60.3,41.038Z" transform="translate(232 102.857)" opacity="0.1"/>
        <path id="Path-72" data-name="Path" d="M60.3,41.038l4.246,4.474s3.4,24.652,5.095,26.958,5.705,11.479,1.942,18.368c0,0-1.211,3.749-.483,5.319s-5.46,9.428-5.46,9.428-8.13,7.249-9.831,8.339-10.676,9.789-13.708,9.909-4.023,3.869-4.023,3.869l-17.109.6s-9.458-.492-11.506.838c0,0,1.1-14.382-9.462-23.81L13.466,100.5s5.1-2.186,6.675-4.47a8.237,8.237,0,0,1,4.023-3.02s3.76-2.659,3.88-4.109,4.6-3.228,4.6-3.228L30.107,64.123l1.335-35.774S35.689-1.625,44.667.069,60.3,41.038,60.3,41.038Z" transform="translate(233.143 102.857)" fill="#e8f5ff"/>
        <path id="Path-73" data-name="Path" d="M0,1.2S12.379-1.919,15.625,1.9,0,1.2,0,1.2Z" transform="translate(277.714 179.429)" opacity="0.1"/>
        <path id="Path-74" data-name="Path" d="M0,0C4.2,3.295,17.143,3.429,17.143,3.429Z" transform="translate(275.429 186.286)" opacity="0.1"/>
        <path id="Path-75" data-name="Path" d="M0,0C.349.117,8.6,9.051,12.067,6.348S0,0,0,0Z" transform="translate(282.286 200)" opacity="0.1"/>
        <path id="Path-76" data-name="Path" d="M0,0S2.522,17.248,1.279,24.272,4.571,40,4.571,40Z" transform="translate(165.714 123.429)" opacity="0.1"/>
        <path id="Path-77" data-name="Path" d="M34.436,3.37c-2.9,2.323-5.023,7.822-6.558,13.865A152.058,152.058,0,0,0,24.324,40S1.2,34.59,2.889,32.134c1.06-1.545-.363-13.187-1.55-21.628C.632,5.519,0,1.647,0,1.647S42.384-3.025,34.436,3.37Z" transform="translate(75.429 126.857)" fill="#ffccd0"/>
        <path id="Path-78" data-name="Path" d="M34.436,3.346c-2.9,2.311-5.023,7.769-6.558,13.772a26.417,26.417,0,0,1-26.538-6.68C.632,5.48,0,1.634,0,1.634S42.384-3,34.436,3.346Z" transform="translate(75.429 126.857)" opacity="0.1"/>
        <path id="Path-79" data-name="Path" d="M53.714,26.847a26.855,26.855,0,1,1-5.908-16.8,26.855,26.855,0,0,1,5.908,16.8Z" transform="translate(68.571 90.286)" fill="#ffccd0"/>
        <path id="Path-80" data-name="Path" d="M9.119,28.571H1.341L.685,14.926,0,.8S1.767.541,4.582.151L5.719,0h.093c.615,2.866,1.222,5.809,1.807,8.749a89.32,89.32,0,0,1,1.515,15.82V25.65C9.156,26.633,9.133,27.615,9.119,28.571Z" transform="translate(134.857 256)" opacity="0.1"/>
        <path id="Path-81" data-name="Path" d="M94.84,128H0c.411-.941.684-1.511.684-1.511S8.272,93,12.129,78.835a.187.187,0,0,0,0-.036,57.037,57.037,0,0,1,1.743-5.685h0a1.959,1.959,0,0,1,.169-.363c1.909-3.131,4.3-6.506.954-11.327s-2.161-26.032-2.161-26.032S16.9,17.311,21.2,7.67a12.973,12.973,0,0,1,2.73-4,11.189,11.189,0,0,1,1.2-1.024h0a10.491,10.491,0,0,1,1-.672l.068-.044A14.358,14.358,0,0,1,32.072.092a16.633,16.633,0,0,1,4.411.124,65.4,65.4,0,0,1,16.99,4.723C65.5,10.267,69.138,17.409,69.21,17.558h0l.029.062c.483,1.137,7.541,17.76,10.083,25.516.659,2.02,1.019,3.44.875,3.829-.72,1.925,5.5,26.028,5.5,26.028s2.881,11.625,5.762,25.251c.126.567.245,1.133.36,1.707.515,2.474,1.026,4.995,1.52,7.512a89.058,89.058,0,0,1,1.473,15.73Q94.887,125.661,94.84,128Z" transform="translate(46.857 156.571)" fill="#e4044d"/>
        <path id="Path-82" data-name="Path" d="M6.59.834S-.08-1.746,0,2.169,1.627,7.956,1.139,8.527s.242,4,.242,4,9.012,0,13.153,1.872,19.4,5.625,21.354,6.767,9.177,6.266,9.177,6.266l.65-9.7A55.036,55.036,0,0,0,25.987,8.354C13.73,5.176,6.59.834,6.59.834Z" transform="translate(72 147.429)" opacity="0.1"/>
        <path id="Path-83" data-name="Path" d="M6.589.834S-.08-1.746,0,2.169,1.627,7.956,1.139,8.527s.242,4,.242,4,9.011,0,13.151,1.876,19.4,5.625,21.35,6.764,9.176,6.266,9.176,6.266l.657-9.672A55.024,55.024,0,0,0,25.99,8.383C13.735,5.206,6.589.834,6.589.834Z" transform="translate(72 146.286)" fill="#e4044d"/>
        <path id="Path-84" data-name="Path" d="M0,0S13.22,13.959,12.547,17.824,0,0,0,0Z" transform="translate(98.286 170.286)" opacity="0.1"/>
        <path id="Path-85" data-name="Path" d="M3.4,0S-2.091,9.742.882,9.114,3.4,0,3.4,0Z" transform="translate(105.143 248)" fill="none"/>
        <path id="Path-86" data-name="Path" d="M12.909,0S3.566,8.511.813,8.994s2.111,2.087,5.275.806S16,5.147,16,5.147Z" transform="translate(65.143 220.571)" opacity="0.1"/>
        <path id="Path-87" data-name="Path" d="M36.571,28.571H15.5C12.549,26,9.762,23.619,7.986,22.187a24.637,24.637,0,0,1-6.2-8.38c-.295-.618-.55-1.2-.767-1.721A28.8,28.8,0,0,1,0,9.319L15.607,0a24.462,24.462,0,0,1,2.425,2.385l.188.218a6.455,6.455,0,0,1,1.7,3.153c.078,1.114,3.16,5.424,6.31,9.562,3.2,4.21,6.47,8.234,6.686,8.505h0s.54.739,1.42,1.875C34.956,26.518,35.723,27.5,36.571,28.571Z" transform="translate(108.571 256)" fill="#ffccd0"/>
        <path id="Path-88" data-name="Path" d="M48,10.007a15.49,15.49,0,0,0-1.567,5.451c-.289,5.56.179,17.991-6.022,20.782-3.071,1.374-6.359-1.642-9.726-1.715a7.922,7.922,0,0,0-6.124,3.383,36.518,36.518,0,0,0-3.47,6.33,43.174,43.174,0,0,1-3.364,5.632,14.188,14.188,0,0,1-1.245,1.559A26.7,26.7,0,0,1,18.546,1.34,27.086,27.086,0,0,1,48,10.022Z" transform="translate(68.571 90.286)" opacity="0.1"/>
        <path id="Path-89" data-name="Path" d="M73.9,25.562c-.29,5.557.178,17.983-5.963,20.768C64.9,47.7,61.643,44.692,58.31,44.619A7.822,7.822,0,0,0,52.249,48a36.382,36.382,0,0,0-3.434,6.331,43.335,43.335,0,0,1-3.329,5.63,8.163,8.163,0,0,1-2.721,2.72c-2,1.046-4.423.458-6.568-.214q-4.173-1.318-8.223-2.971a8.339,8.339,0,0,0,.094-1.235c-.08.153-.167.294-.254.447l-.17.3c-.308.545-.609,1.09-.884,1.649-.105.214-.206.436-.3.657a8.371,8.371,0,0,0-.677,2.6c-.185,2.423,1.007,4.722,2.065,6.9,4.068,8.43,6.582,18.288,3.521,27.132-1.326,3.846-3.623,7.264-5.3,10.98A35.56,35.56,0,0,0,23.6,129.909c.837,4.4,2.514,8.761,2.1,13.225-.725,7.682-7.332,13.4-13.951,17.329-3.576,2.114-7.952,4-11.748,2.325,2.42-2.833,3.043-6.752,3.565-10.45q2.141-15.128,4.293-30.27.859-6.026,1.714-12.051c1.065-7.548,2.145-15.179,1.478-22.773-.485-5.6-1.855-11.539.565-16.606,1.279-2.684,3.557-4.907,4.267-7.8.583-2.35.04-4.849.424-7.242a12.349,12.349,0,0,1,1.058-3.138,15.422,15.422,0,0,1,2.427-3.712,4.143,4.143,0,0,1-2.427-1.486c1.558-1.017,1.793-3.309,1.087-5.03a15.454,15.454,0,0,0-3.391-4.391A8.485,8.485,0,0,1,12.4,33.044c-.308-3.527,3.206-6.258,3.826-9.738.627-3.541-1.851-6.985-1.652-10.569.232-4.333,4.2-7.482,8.122-9.309A36.866,36.866,0,0,1,41.639.159C46.92.66,52.032,2.3,57.3,2.934c3.177.363,6.4.4,9.553.959a15.33,15.33,0,0,1,8.539,4.061C81.245,14.073,74.232,19.111,73.9,25.562Z" transform="translate(40 80)" fill="#242324"/>
        <path id="Path-90" data-name="Path" d="M43.816,92.531c-1.864-.8-5.255-.324-11.075-2.089S25.8,80.7,25.8,80.7v-.025h0c-.069-.182-.61-1.368-4.272-5.524C17.481,70.561,8.737,47.384,8.737,47.384S.983,39.09,1.228,36.033-.15,24.843.011,15.745,17.467.613,17.467.613c33.3-5.877,25.458,32.356,24.57,35.252s3.72,10.721,3.72,10.721c-.65,3.406,2.667,8.679,2.667,8.679s.8,4.665.968,6.438a1.088,1.088,0,0,0,.055.24c.533,1.67,4.882,3.184,6.65,4.1,1.86.968,7.842,9.418,7.842,9.418C65.229,81.672,45.672,93.346,43.816,92.531Z" transform="translate(66.286 177.143)" opacity="0.1"/>
        <path id="Path-91" data-name="Path" d="M43.817,92.53c-1.86-.808-5.255-.324-11.073-2.093S25.8,80.7,25.8,80.7v-.025h0c-.066-.186-.61-1.369-4.272-5.525C17.483,70.556,8.738,47.371,8.738,47.371S.983,39.079,1.225,36.022-.15,24.829.011,15.737,17.458.613,17.458.613c33.3-5.878,25.46,32.362,24.572,35.259S45.75,46.6,45.75,46.6c-.65,3.407,2.668,8.681,2.668,8.681s.8,4.666.972,6.439a.91.91,0,0,0,.051.24c.534,1.671,4.882,3.185,6.655,4.106,1.856.965,7.842,9.42,7.842,9.42C65.236,81.676,45.677,93.353,43.817,92.53Z" transform="translate(67.429 174.857)" fill="#e4044d"/>
        <path id="Path-92" data-name="Path" d="M0,0S15.048,14.857,18.976,14.857,0,0,0,0Z" transform="translate(84.571 196.571)" opacity="0.1"/>
        <path id="Path-93" data-name="Path" d="M17.771,30.816c-1.835-.814-5.183-.326-10.922-2.108S0,18.895,0,18.895v-.026H0C3.8,16.3,13.434,9.053,17.23,6.4A26.85,26.85,0,0,0,23.358,0c.526,1.683,4.816,3.208,6.564,4.136,1.831.972,7.735,9.49,7.735,9.49C38.9,19.881,19.605,31.644,17.771,30.816Z" transform="translate(92.571 237.714)" fill="#e4044d"/>
        <g id="Group-2" data-name="Group" transform="translate(40 85.714)" opacity="0.1">
          <path id="Path-94" data-name="Path" d="M0,.323C.018.352.043.377.065.406.174.268.286.13.4,0A2.7,2.7,0,0,1,0,.323Z" transform="translate(17.372 39.976)"/>
          <path id="Path-95" data-name="Path" d="M25.732,7.56c.152-2.012,1.225-3.784,2.23-5.552C27.3,1.754,26.647,1.5,26,1.229A8.234,8.234,0,0,0,26.09,0c-1.016,1.812-2.122,3.6-2.277,5.636-.184,2.421,1,4.712,2.06,6.886,4.063,8.408,6.568,18.245,3.513,27.074C28.06,43.43,25.772,46.845,24.1,50.552A35.471,35.471,0,0,0,21.633,71.49c.828,4.4,2.5,8.742,2.093,13.2-.723,7.665-7.312,13.37-13.92,17.288-2.7,1.6-5.856,3.07-8.874,2.965A10.962,10.962,0,0,1,0,106.226c3.792,1.678,8.155-.21,11.722-2.327,6.611-3.914,13.215-9.6,13.938-17.284.412-4.454-1.265-8.8-2.1-13.2A35.5,35.5,0,0,1,26.022,52.48c1.663-3.7,3.976-7.122,5.288-10.956,3.054-8.829.546-18.665-3.513-27.074C26.745,12.261,25.548,9.981,25.732,7.56Z" transform="translate(0.025 49.353)"/>
          <path id="Path-96" data-name="Path" d="M47.3,1.015A10.452,10.452,0,0,0,46.162,0c4.381,5.7-1.945,10.54-2.259,16.672-.282,5.545.181,17.948-5.946,20.724-3.029,1.374-6.279-1.635-9.6-1.707a7.82,7.82,0,0,0-6.051,3.374,36.147,36.147,0,0,0-3.423,6.314,43.431,43.431,0,0,1-3.325,5.618,7.941,7.941,0,0,1-2.718,2.718c-1.988,1.04-4.406.457-6.55-.217q-3.127-.986-6.2-2.175A7.86,7.86,0,0,1,0,52.448Q4.045,54.1,8.209,55.413c2.14.674,4.558,1.258,6.55.217a8.144,8.144,0,0,0,2.718-2.722A42.72,42.72,0,0,0,20.8,47.294a36.2,36.2,0,0,1,3.427-6.317,7.821,7.821,0,0,1,6.047-3.371c3.325.072,6.575,3.081,9.6,1.707,6.127-2.776,5.66-15.179,5.946-20.724C46.155,12.142,53.153,7.118,47.3,1.015Z" transform="translate(27.937 0.065)"/>
        </g>
        <path id="Path-97" data-name="Path" d="M10.286,9.156c-.308.537-.609,1.073-.884,1.624-.105.211-.207.429-.3.648C7.205,9.539,2.58,5.049,0,3.657A15.244,15.244,0,0,1,2.428,0S8.579,3.21,10.286,9.156Z" transform="translate(58.286 129.143)" opacity="0.1"/>
        <path id="Path-98" data-name="Path" d="M10.286,10.516C8.885,3.693,2.389,0,2.389,0A16.446,16.446,0,0,0,0,3.919C2.677,5.5,7.612,10.78,9.248,12.571Z" transform="translate(58.286 128)" fill="#e4d404"/>
      </g>
    </g>
  </g>
</svg>
