<svg id="Icon" xmlns="http://www.w3.org/2000/svg" width="100" height="100" viewBox="0 0 100 100">
  <path id="_Icon_Сolor" data-name="🎨 Icon Сolor" d="M54.165,75A4.171,4.171,0,0,1,50,70.834a20.833,20.833,0,1,0-41.666,0,4.166,4.166,0,0,1-8.332,0,29.167,29.167,0,1,1,58.335,0A4.173,4.173,0,0,1,54.165,75Zm-25-41.666A16.667,16.667,0,1,1,45.833,16.665,16.688,16.688,0,0,1,29.167,33.334Zm0-25A8.334,8.334,0,1,0,37.5,16.665,8.342,8.342,0,0,0,29.167,8.332Z" transform="translate(20.833 12.5)" fill="#c5cee0"/>
</svg>
