<svg id="Icon" xmlns="http://www.w3.org/2000/svg" width="100" height="100" viewBox="0 0 100 100">
  <path id="_Icon_Сolor" data-name="🎨 Icon Сolor" d="M67.129,83.284H7.867A8.121,8.121,0,0,1,0,74.947V40.05a8.643,8.643,0,0,1,2.4-5.993L34.522,1.2a4.284,4.284,0,0,1,5.955,0L72.6,34.054a8.649,8.649,0,0,1,2.4,6v34.9A8.123,8.123,0,0,1,67.129,83.284ZM25,41.614H50a4.173,4.173,0,0,1,4.166,4.17V74.947H66.626l.041-34.9L37.493,10.084,8.359,39.877l-.026,35.07h12.5V45.784A4.173,4.173,0,0,1,25,41.614Zm4.166,8.336v25H45.832v-25Z" transform="translate(12.501 8.334)" fill="#c5cee0"/>
</svg>
