<svg id="Icon" xmlns="http://www.w3.org/2000/svg" xmlns:xlink="http://www.w3.org/1999/xlink" width="100" height="100" viewBox="0 0 100 100">
  <defs>
    <clipPath id="clip-path">
      <path id="_Icon_小olor" data-name=" Icon 小olor" d="M4.8,96A4.8,4.8,0,0,1,.1,90.257L4.213,69.676a5.282,5.282,0,0,0-.428-3.067A47.952,47.952,0,0,1,40.309.6a50.6,50.6,0,0,1,7.7-.6A48.026,48.026,0,0,1,95.4,55.691,48.366,48.366,0,0,1,57.057,95.152a49.083,49.083,0,0,1-9.014.841,47.68,47.68,0,0,1-18.655-3.774,5.939,5.939,0,0,0-2.283-.5,4.334,4.334,0,0,0-.806.074L5.746,95.908A4.689,4.689,0,0,1,4.8,96ZM27.116,82.118a15.415,15.415,0,0,1,6.017,1.257,38.021,38.021,0,0,0,14.9,3.019,39.239,39.239,0,0,0,7.256-.682A38.4,38.4,0,0,0,75.148,20.844,38.134,38.134,0,0,0,48,9.6a40.545,40.545,0,0,0-6.217.485,38.35,38.35,0,0,0-29.159,52.78,14.813,14.813,0,0,1,.994,8.692l-2.7,13.522,13.5-2.7A13.794,13.794,0,0,1,27.116,82.118ZM67.2,52.8A4.8,4.8,0,1,1,72,48,4.8,4.8,0,0,1,67.2,52.8ZM48,52.8A4.8,4.8,0,1,1,52.8,48,4.8,4.8,0,0,1,48,52.8Zm-19.2,0A4.8,4.8,0,1,1,33.6,48,4.8,4.8,0,0,1,28.8,52.8Z" transform="translate(0 0)" fill="#c5cee0"/>
    </clipPath>
  </defs>
  <g id="Group_45" data-name="Group 45" transform="translate(2 1)">
    <path id="_Icon_小olor-2" data-name=" Icon 小olor" d="M4.8,96A4.8,4.8,0,0,1,.1,90.257L4.213,69.676a5.282,5.282,0,0,0-.428-3.067A47.952,47.952,0,0,1,40.309.6a50.6,50.6,0,0,1,7.7-.6A48.026,48.026,0,0,1,95.4,55.691,48.366,48.366,0,0,1,57.057,95.152a49.083,49.083,0,0,1-9.014.841,47.68,47.68,0,0,1-18.655-3.774,5.939,5.939,0,0,0-2.283-.5,4.334,4.334,0,0,0-.806.074L5.746,95.908A4.689,4.689,0,0,1,4.8,96ZM27.116,82.118a15.415,15.415,0,0,1,6.017,1.257,38.021,38.021,0,0,0,14.9,3.019,39.239,39.239,0,0,0,7.256-.682A38.4,38.4,0,0,0,75.148,20.844,38.134,38.134,0,0,0,48,9.6a40.545,40.545,0,0,0-6.217.485,38.35,38.35,0,0,0-29.159,52.78,14.813,14.813,0,0,1,.994,8.692l-2.7,13.522,13.5-2.7A13.794,13.794,0,0,1,27.116,82.118ZM67.2,52.8A4.8,4.8,0,1,1,72,48,4.8,4.8,0,0,1,67.2,52.8ZM48,52.8A4.8,4.8,0,1,1,52.8,48,4.8,4.8,0,0,1,48,52.8Zm-19.2,0A4.8,4.8,0,1,1,33.6,48,4.8,4.8,0,0,1,28.8,52.8Z" transform="translate(0 0)" fill="#c5cee0"/>
  </g>
</svg>
