<svg id="Icon" xmlns="http://www.w3.org/2000/svg" width="100" height="100" viewBox="0 0 100 100">
  <path id="_Icon_Сolor" data-name="🎨 Icon Сolor" d="M45.833,79.166a25,25,0,0,1-25-25V49.653A25,25,0,0,1,0,25V4.166A4.164,4.164,0,0,1,4.166,0H12.5a4.168,4.168,0,0,1,.488,8.306l-.488.026H8.333V25l.03.979a16.668,16.668,0,0,0,33.277,0L41.666,25V8.333H37.5A4.168,4.168,0,0,1,37.013.026L37.5,0h8.333A4.164,4.164,0,0,1,50,4.166V25A25,25,0,0,1,29.168,49.653v4.512A16.67,16.67,0,0,0,45.833,70.834H50A16.67,16.67,0,0,0,66.668,54.165v-.711a12.5,12.5,0,1,1,8.332,0v.71a25,25,0,0,1-25,25Zm25-33.334a4.167,4.167,0,1,0-2.944-1.219A4.154,4.154,0,0,0,70.834,45.833Z" transform="translate(8.333 12.5)" fill="#e52d27"/>
</svg>
