<svg id="Icon" xmlns="http://www.w3.org/2000/svg" xmlns:xlink="http://www.w3.org/1999/xlink" width="94" height="96" viewBox="0 0 94 96">
  <defs>
    <clipPath id="clip-path">
      <path id="_Icon_小olor" data-name=" Icon 小olor" d="M78.335,96H15.665C7.027,96,0,89.541,0,81.6V24C0,16.06,7.027,9.6,15.665,9.6h5.222V4.8A5.032,5.032,0,0,1,26.113,0a5.03,5.03,0,0,1,5.222,4.8V9.6h31.33V4.8a5.243,5.243,0,0,1,10.448,0V9.6h5.222C86.973,9.6,94,16.06,94,24V81.6C94,89.541,86.973,96,78.335,96ZM10.443,52.8V81.6a5.03,5.03,0,0,0,5.222,4.8h62.67a5.03,5.03,0,0,0,5.222-4.8V52.8Zm5.222-33.6A5.032,5.032,0,0,0,10.443,24V43.2H83.557V24a5.032,5.032,0,0,0-5.222-4.8H73.113V24a5.243,5.243,0,0,1-10.448,0V19.2H31.335V24a5.03,5.03,0,0,1-5.222,4.8A5.032,5.032,0,0,1,20.887,24V19.2ZM67.887,72H47a4.819,4.819,0,1,1,0-9.6H67.887a4.819,4.819,0,1,1,0,9.6ZM26.113,72a4.819,4.819,0,1,1,0-9.6,4.819,4.819,0,1,1,0,9.6Z" fill="#222b45"/>
    </clipPath>
  </defs>
  <g id="Group_41" data-name="Group 41">
    <path id="_Icon_小olor-2" data-name=" Icon 小olor" d="M78.335,96H15.665C7.027,96,0,89.541,0,81.6V24C0,16.06,7.027,9.6,15.665,9.6h5.222V4.8A5.032,5.032,0,0,1,26.113,0a5.03,5.03,0,0,1,5.222,4.8V9.6h31.33V4.8a5.243,5.243,0,0,1,10.448,0V9.6h5.222C86.973,9.6,94,16.06,94,24V81.6C94,89.541,86.973,96,78.335,96ZM10.443,52.8V81.6a5.03,5.03,0,0,0,5.222,4.8h62.67a5.03,5.03,0,0,0,5.222-4.8V52.8Zm5.222-33.6A5.032,5.032,0,0,0,10.443,24V43.2H83.557V24a5.032,5.032,0,0,0-5.222-4.8H73.113V24a5.243,5.243,0,0,1-10.448,0V19.2H31.335V24a5.03,5.03,0,0,1-5.222,4.8A5.032,5.032,0,0,1,20.887,24V19.2ZM67.887,72H47a4.819,4.819,0,1,1,0-9.6H67.887a4.819,4.819,0,1,1,0,9.6ZM26.113,72a4.819,4.819,0,1,1,0-9.6,4.819,4.819,0,1,1,0,9.6Z" transform="translate(0 0)" fill="#e52d27"/>
  </g>
</svg>
