<svg xmlns="http://www.w3.org/2000/svg" width="121.985" height="102.839" viewBox="0 0 121.985 102.839">
  <g id="noun_Ambulance_1908521" transform="translate(368.5 150.5)">
    <g id="Layer_2" data-name="Layer 2" transform="translate(-368 -150)">
      <g id="ambulance_emergency_medical_car_rescue_vehicle_fast" data-name="ambulance, emergency, medical, car, rescue, vehicle, fast" transform="translate(0 0)">
        <path id="Path_6601" data-name="Path 6601" d="M41.89,272.5A15.5,15.5,0,1,0,57.385,257,15.5,15.5,0,0,0,41.89,272.5Zm28.031,0a12.538,12.538,0,1,1-12.538-12.538A12.538,12.538,0,0,1,69.921,272.5Z" transform="translate(-30.342 -186.152)" fill="#e52d27" stroke="#e52d27" stroke-width="1"/>
        <path id="Path_6602" data-name="Path 6602" d="M76.6,287.074a1.478,1.478,0,0,0,1.478,1.478A4.651,4.651,0,1,1,73.7,291.6a1.478,1.478,0,1,0-2.773-1.02,7.617,7.617,0,1,0,7.151-5,1.48,1.48,0,0,0-1.478,1.494Z" transform="translate(-51.036 -206.853)" fill="#e52d27" stroke="#e52d27" stroke-width="1"/>
        <path id="Path_6603" data-name="Path 6603" d="M282.5,287.991a15.5,15.5,0,1,0-15.5-15.5A15.5,15.5,0,0,0,282.5,287.991Zm0-28.033A12.538,12.538,0,1,1,269.964,272.5,12.538,12.538,0,0,1,282.5,259.958Z" transform="translate(-193.395 -186.152)" fill="#e52d27" stroke="#e52d27" stroke-width="1"/>
        <path id="Path_6604" data-name="Path 6604" d="M303.217,300.814a7.617,7.617,0,1,0,0-15.234,1.48,1.48,0,0,0,0,2.958,4.656,4.656,0,1,1-4.378,3.055,1.478,1.478,0,0,0-2.776-1.015,7.62,7.62,0,0,0,7.168,10.236Z" transform="translate(-214.111 -206.853)" fill="#e52d27" stroke="#e52d27" stroke-width="1"/>
        <path id="Path_6605" data-name="Path 6605" d="M215.548,6.517a1.478,1.478,0,0,0,1.478-1.478V1.478a1.478,1.478,0,0,0-2.955,0V5.039A1.478,1.478,0,0,0,215.548,6.517Z" transform="translate(-155.057 0)" fill="#e52d27" stroke="#e52d27" stroke-width="1"/>
        <path id="Path_6606" data-name="Path 6606" d="M180.146,16.931a1.48,1.48,0,0,0,1.161-2.393l-2.351-2.988a1.48,1.48,0,0,0-2.324,1.83l2.352,2.986a1.48,1.48,0,0,0,1.163.565Z" transform="translate(-127.735 -7.991)" fill="#e52d27" stroke="#e52d27" stroke-width="1"/>
        <path id="Path_6607" data-name="Path 6607" d="M243.956,16.614a1.472,1.472,0,0,0,2.073-.248l2.354-2.986a1.48,1.48,0,0,0-2.324-1.83l-2.352,2.988A1.478,1.478,0,0,0,243.956,16.614Z" transform="translate(-176.295 -7.991)" fill="#e52d27" stroke="#e52d27" stroke-width="1"/>
        <path id="Path_6608" data-name="Path 6608" d="M269.905,190.89a1.478,1.478,0,0,0-1.478-1.48h-3.78a1.48,1.48,0,0,0,0,2.958h3.78a1.478,1.478,0,0,0,1.478-1.478Z" transform="translate(-190.666 -137.195)" fill="#e52d27" stroke="#e52d27" stroke-width="1"/>
        <path id="Path_6609" data-name="Path 6609" d="M120.985,124.944a10.3,10.3,0,0,0-4.1-8.2l-11.523-8.637a7.245,7.245,0,0,1-1.858-2.048L96.078,93.829A10.316,10.316,0,0,0,87.317,88.9H8.342A8.35,8.35,0,0,0,0,97.242v46.633a8.325,8.325,0,0,0,5.094,7.683,1.478,1.478,0,1,0,1.152-2.721,5.381,5.381,0,0,1-3.292-4.962V97.242a5.392,5.392,0,0,1,5.387-5.384H87.317a7.33,7.33,0,0,1,6.233,3.507l7.429,12.229a10.178,10.178,0,0,0,2.611,2.881l11.52,8.634a7.33,7.33,0,0,1,2.919,5.836v18.931a5.392,5.392,0,0,1-5.387,5.384h-2.205a1.478,1.478,0,1,0,0,2.955h2.205a8.35,8.35,0,0,0,8.342-8.339Z" transform="translate(0 -64.393)" fill="#e52d27" stroke="#e52d27" stroke-width="1"/>
        <path id="Path_6610" data-name="Path 6610" d="M169.27,309.328a1.478,1.478,0,0,0,1.478,1.478h20.226a1.478,1.478,0,1,0,0-2.955H170.739A1.478,1.478,0,0,0,169.27,309.328Z" transform="translate(-122.607 -222.984)" fill="#e52d27" stroke="#e52d27" stroke-width="1"/>
        <path id="Path_6611" data-name="Path 6611" d="M189.59,45.5V47.23a1.478,1.478,0,1,0,2.955,0V45.5a5.271,5.271,0,1,1,10.542,0V47.23a1.478,1.478,0,1,0,2.955,0V45.5a8.226,8.226,0,1,0-16.452,0Z" transform="translate(-137.325 -26.996)" fill="#e52d27" stroke="#e52d27" stroke-width="1"/>
        <path id="Path_6612" data-name="Path 6612" d="M277.012,118.9A5.789,5.789,0,0,0,272,116h-8.615A4.394,4.394,0,0,0,259,120.411v7.443a4.394,4.394,0,0,0,4.389,4.391h13.3A4.634,4.634,0,0,0,280.7,125.3Zm1.125,9.544a1.654,1.654,0,0,1-1.453.827h-13.3a1.436,1.436,0,0,1-1.434-1.436v-7.427a1.434,1.434,0,0,1,1.434-1.434H272a2.839,2.839,0,0,1,2.451,1.414l3.686,6.393a1.654,1.654,0,0,1,0,1.662Z" transform="translate(-187.6 -84.022)" fill="#e52d27" stroke="#e52d27" stroke-width="1"/>
        <path id="Path_6613" data-name="Path 6613" d="M119.137,143.75H110.2a1.478,1.478,0,0,0-1.478,1.478v4.852h-4.852a1.478,1.478,0,0,0-1.478,1.478v8.94a1.478,1.478,0,0,0,1.478,1.478h4.852v.276a1.478,1.478,0,0,0,2.955,0V160.5a1.478,1.478,0,0,0-1.478-1.48h-4.852v-5.982H110.2a1.478,1.478,0,0,0,1.478-1.478v-4.852h5.985v4.852a1.478,1.478,0,0,0,1.478,1.478h4.849v5.982h-4.849a1.478,1.478,0,0,0-1.478,1.48v4.849H110.2a1.48,1.48,0,0,0,0,2.958h8.94a1.478,1.478,0,0,0,1.478-1.48v-4.849h4.852a1.478,1.478,0,0,0,1.478-1.478v-8.94a1.478,1.478,0,0,0-1.478-1.478h-4.852v-4.852A1.478,1.478,0,0,0,119.137,143.75Z" transform="translate(-74.164 -104.122)" fill="#e52d27" stroke="#e52d27" stroke-width="1"/>
      </g>
    </g>
  </g>
</svg>
