<svg id="noun_Pharmacy_2080745" xmlns="http://www.w3.org/2000/svg" width="100" height="100" viewBox="0 0 100 100">
  <g id="Group_87" data-name="Group 87">
    <path id="Path_6573" data-name="Path 6573" d="M11.667,28.333A1.666,1.666,0,0,1,10,26.667V24.86a19.212,19.212,0,0,1,2.738-9.885A15.874,15.874,0,0,0,15,6.808V1.667a1.667,1.667,0,1,1,3.333,0V6.808a19.21,19.21,0,0,1-2.738,9.883,15.876,15.876,0,0,0-2.262,8.168v1.807A1.666,1.666,0,0,1,11.667,28.333Z" transform="translate(6.667)" fill="#e52d27"/>
    <path id="Path_6574" data-name="Path 6574" d="M30.667,11.667A1.666,1.666,0,0,1,29,10V1.667a1.667,1.667,0,0,1,3.333,0V10A1.666,1.666,0,0,1,30.667,11.667Z" transform="translate(19.333)" fill="#e52d27"/>
    <path id="Path_6575" data-name="Path 6575" d="M38.667,18.333A1.666,1.666,0,0,1,37,16.667v-15a1.667,1.667,0,0,1,3.333,0v15A1.666,1.666,0,0,1,38.667,18.333Z" transform="translate(24.667)" fill="#e52d27"/>
    <path id="Path_6576" data-name="Path 6576" d="M51.667,28.333A1.666,1.666,0,0,1,50,26.667V24.86a15.876,15.876,0,0,0-2.262-8.168A19.21,19.21,0,0,1,45,6.808V1.667a1.667,1.667,0,1,1,3.333,0V6.808A15.874,15.874,0,0,0,50.6,14.975a19.212,19.212,0,0,1,2.738,9.885v1.807A1.666,1.666,0,0,1,51.667,28.333Z" transform="translate(30)" fill="#e52d27"/>
    <path id="Path_6577" data-name="Path 6577" d="M10.833,28.333H9.167A9.177,9.177,0,0,1,0,19.167v-2.5A1.666,1.666,0,0,1,1.667,15H18.333A1.666,1.666,0,0,1,20,16.667v2.5A9.177,9.177,0,0,1,10.833,28.333Zm-7.5-10v.833A5.84,5.84,0,0,0,9.167,25h1.667a5.84,5.84,0,0,0,5.833-5.833v-.833Z" transform="translate(0 10)" fill="#e52d27"/>
    <path id="Path_6578" data-name="Path 6578" d="M58.833,28.333H57.167A9.177,9.177,0,0,1,48,19.167v-2.5A1.666,1.666,0,0,1,49.667,15H66.333A1.666,1.666,0,0,1,68,16.667v2.5A9.178,9.178,0,0,1,58.833,28.333Zm-7.5-10v.833A5.84,5.84,0,0,0,57.167,25h1.667a5.84,5.84,0,0,0,5.833-5.833v-.833Z" transform="translate(32 10)" fill="#e52d27"/>
    <path id="Path_6579" data-name="Path 6579" d="M37.333,41.667A18.333,18.333,0,1,1,55.667,23.333,18.355,18.355,0,0,1,37.333,41.667Zm0-33.333a15,15,0,1,0,15,15A15.016,15.016,0,0,0,37.333,8.333Z" transform="translate(12.667 3.333)" fill="#e52d27"/>
    <path id="Path_6580" data-name="Path 6580" d="M38,32.333H31.333a1.666,1.666,0,0,1-1.667-1.667v-5h-5A1.666,1.666,0,0,1,23,24V17.333a1.666,1.666,0,0,1,1.667-1.667h5v-5A1.666,1.666,0,0,1,31.333,9H38a1.666,1.666,0,0,1,1.667,1.667v5h5a1.666,1.666,0,0,1,1.667,1.667V24a1.666,1.666,0,0,1-1.667,1.667h-5v5A1.666,1.666,0,0,1,38,32.333ZM33,29h3.333V24A1.666,1.666,0,0,1,38,22.333h5V19H38a1.666,1.666,0,0,1-1.667-1.667v-5H33v5A1.666,1.666,0,0,1,31.333,19h-5v3.333h5A1.666,1.666,0,0,1,33,24Z" transform="translate(15.333 6)" fill="#e52d27"/>
    <path id="Path_6581" data-name="Path 6581" d="M98.333,28.333H66.667A1.666,1.666,0,0,1,65,26.667a15,15,0,1,0-30,0,1.666,1.666,0,0,1-1.667,1.667H1.667A1.666,1.666,0,0,1,0,26.667,17.641,17.641,0,0,1,5.2,14.108a10.619,10.619,0,0,0,3.132-7.56V4.827A4.833,4.833,0,0,1,13.16,0H86.84a4.833,4.833,0,0,1,4.827,4.827v1.72a10.619,10.619,0,0,0,3.132,7.56,17.644,17.644,0,0,1,5.2,12.56A1.666,1.666,0,0,1,98.333,28.333ZM68.258,25H96.573a14.308,14.308,0,0,0-4.132-8.535h0a13.932,13.932,0,0,1-4.108-9.917V4.827A1.5,1.5,0,0,0,86.84,3.333H13.16a1.5,1.5,0,0,0-1.493,1.493v1.72A13.937,13.937,0,0,1,7.56,16.463,14.322,14.322,0,0,0,3.428,25H31.743a18.333,18.333,0,0,1,36.515,0Z" fill="#e52d27"/>
    <path id="Path_6582" data-name="Path 6582" d="M91.333,88H4.667A1.666,1.666,0,0,1,3,86.333V24.208a1.667,1.667,0,0,1,2.223-1.57A5.792,5.792,0,0,0,7.167,23H8.833a5.83,5.83,0,0,0,5.47-3.892A1.668,1.668,0,0,1,15.873,18h.918a1.667,1.667,0,0,1,1.57,1.108A5.833,5.833,0,0,0,23.833,23H25.5a5.811,5.811,0,0,0,5.277-3.468,1.666,1.666,0,0,1,3.092.125,14.979,14.979,0,0,0,28.262,0,1.666,1.666,0,0,1,3.092-.125A5.816,5.816,0,0,0,70.5,23h1.667a5.83,5.83,0,0,0,5.47-3.892A1.668,1.668,0,0,1,79.207,18h.918a1.667,1.667,0,0,1,1.57,1.108A5.833,5.833,0,0,0,87.167,23h1.667a5.755,5.755,0,0,0,1.943-.363A1.667,1.667,0,0,1,93,24.208V86.333A1.666,1.666,0,0,1,91.333,88Zm-85-3.333H89.667V26.292c-.278.027-.555.042-.833.042H87.167a9.153,9.153,0,0,1-7.5-3.943,9.152,9.152,0,0,1-7.5,3.943H70.5A9.083,9.083,0,0,1,64,23.578a18.305,18.305,0,0,1-32.01,0A9.083,9.083,0,0,1,25.5,26.333H23.833a9.153,9.153,0,0,1-7.5-3.943,9.152,9.152,0,0,1-7.5,3.943H7.167c-.278,0-.555-.015-.833-.042Z" transform="translate(2 12)" fill="#e52d27"/>
    <path id="Path_6583" data-name="Path 6583" d="M20.833,28.333H19.167A9.178,9.178,0,0,1,10,19.167v-2.5A1.666,1.666,0,0,1,11.667,15h15a1.666,1.666,0,0,1,1.667,1.667,14.992,14.992,0,0,0,.885,5.035,1.665,1.665,0,0,1-.053,1.25A9.182,9.182,0,0,1,20.833,28.333Zm-7.5-10v.833A5.84,5.84,0,0,0,19.167,25h1.667a5.838,5.838,0,0,0,5.012-2.878,18.387,18.387,0,0,1-.767-3.788Z" transform="translate(6.667 10)" fill="#e52d27"/>
    <path id="Path_6584" data-name="Path 6584" d="M48.56,28.333H46.893a9.186,9.186,0,0,1-8.333-5.382,1.665,1.665,0,0,1-.053-1.25,14.953,14.953,0,0,0,.887-5.035A1.666,1.666,0,0,1,41.06,15h15a1.666,1.666,0,0,1,1.667,1.667v2.5A9.177,9.177,0,0,1,48.56,28.333Zm-6.678-6.212A5.838,5.838,0,0,0,46.893,25H48.56a5.84,5.84,0,0,0,5.833-5.833v-.833H42.648A18.365,18.365,0,0,1,41.882,22.122Z" transform="translate(25.607 10)" fill="#e52d27"/>
    <path id="Path_6585" data-name="Path 6585" d="M22.667,18.333A1.666,1.666,0,0,1,21,16.667v-15a1.667,1.667,0,0,1,3.333,0v15A1.666,1.666,0,0,1,22.667,18.333Z" transform="translate(14)" fill="#e52d27"/>
    <path id="Path_6586" data-name="Path 6586" d="M61.667,78.667h-25A1.666,1.666,0,0,1,35,77V33.667A1.666,1.666,0,0,1,36.667,32h25a1.666,1.666,0,0,1,1.667,1.667V77A1.666,1.666,0,0,1,61.667,78.667ZM38.333,75.333H60v-40H38.333Z" transform="translate(23.333 21.333)" fill="#e52d27"/>
    <path id="Path_6587" data-name="Path 6587" d="M43.333,41.333H36.667a1.667,1.667,0,1,1,0-3.333h6.667a1.667,1.667,0,1,1,0,3.333Z" transform="translate(23.333 25.333)" fill="#e52d27"/>
    <path id="Path_6588" data-name="Path 6588" d="M43.333,55.333H36.667a1.667,1.667,0,1,1,0-3.333h6.667a1.667,1.667,0,1,1,0,3.333Z" transform="translate(23.333 34.667)" fill="#e52d27"/>
    <path id="Path_6589" data-name="Path 6589" d="M47.667,53.333A1.666,1.666,0,0,1,46,51.667v-5a1.667,1.667,0,0,1,3.333,0v5A1.666,1.666,0,0,1,47.667,53.333Z" transform="translate(30.667 30)" fill="#e52d27"/>
    <path id="Path_6590" data-name="Path 6590" d="M46.333,65.333H9.667A1.666,1.666,0,0,1,8,63.667v-30A1.666,1.666,0,0,1,9.667,32H46.333A1.666,1.666,0,0,1,48,33.667v30A1.666,1.666,0,0,1,46.333,65.333ZM11.333,62H44.667V35.333H11.333Z" transform="translate(5.333 21.333)" fill="#e52d27"/>
    <path id="Path_6591" data-name="Path 6591" d="M16.667,47a1.667,1.667,0,0,1-1.178-2.845l6.667-6.667a1.666,1.666,0,1,1,2.357,2.357l-6.667,6.667A1.662,1.662,0,0,1,16.667,47Z" transform="translate(10 24.666)" fill="#e52d27"/>
    <path id="Path_6592" data-name="Path 6592" d="M16.667,51.333a1.667,1.667,0,0,1-1.178-2.845l5-5a1.666,1.666,0,1,1,2.357,2.357l-5,5A1.662,1.662,0,0,1,16.667,51.333Z" transform="translate(10 28.666)" fill="#e52d27"/>
    <path id="Path_6593" data-name="Path 6593" d="M22.667,45.333a1.667,1.667,0,0,1-1.178-2.845l5-5a1.666,1.666,0,1,1,2.357,2.357l-5,5A1.662,1.662,0,0,1,22.667,45.333Z" transform="translate(14 24.666)" fill="#e52d27"/>
    <path id="Path_6594" data-name="Path 6594" d="M49.667,48.333h-5a1.667,1.667,0,1,1,0-3.333h5a1.667,1.667,0,1,1,0,3.333Z" transform="translate(28.667 30)" fill="#e52d27"/>
  </g>
</svg>
