<svg xmlns="http://www.w3.org/2000/svg" width="68.421" height="100" viewBox="0 0 68.421 100">
  <path id="Path_6572" data-name="Path 6572" d="M59.526,964.362c-8.187,0-12.582,2.837-16.53,5.469a1.346,1.346,0,0,0-.576,1.275l.946,6.127a14.174,14.174,0,0,0-6.209,9.334c-1.351,13.512,2.466,27.731-3.783,38.98a1.379,1.379,0,0,0,.822,1.933c4.809,1.2,10.028.279,14.1-.822a7.768,7.768,0,0,1-2.549,2.138,35.313,35.313,0,0,1-8.676,3.125c-4.8,1.119-7.991,2.324-10.115,4.153A8.981,8.981,0,0,0,24,1043.227v17.188a1.36,1.36,0,0,0,1.151,1.275c10.534,1.317,21.908,2.673,33.059,2.673,10.989,0,22.523-1.356,33.059-2.673a1.36,1.36,0,0,0,1.151-1.275v-17.105a8.91,8.91,0,0,0-4.03-7.278,31.082,31.082,0,0,0-9.087-3.989,29.45,29.45,0,0,1-6.743-3.289,7.508,7.508,0,0,1-1.933-2.056c3.686,1.08,7.916,1.994,11.678.74a1.377,1.377,0,0,0,.7-1.932c-3.745-6.242-4.057-13.132-3.413-19.572s2.3-12.258,2.3-16.571c0-4.083-2.106-7.459-5.222-9.992l1.275-8.265a1.346,1.346,0,0,0-.576-1.275,30.826,30.826,0,0,0-17.845-5.469Zm0,2.632a27.258,27.258,0,0,1,15.666,4.646l-2.3,14.8a50.326,50.326,0,0,0-25.411,0l-2.3-14.844C48.864,969.148,52.359,966.994,59.526,966.994Zm-1.316,3.947v3.289H54.921v3.947h3.289v3.29h3.947v-3.29h3.289V974.23H62.158v-3.289Zm-14.391,9.169,1.234,8.1a1.376,1.376,0,0,0,1.727,1.069c5.53-1.843,13.361-2.306,20.107-1.439-7.42,5.708-16.934,8.2-27.261,10.732a92.055,92.055,0,0,1,.164-11.678,10.652,10.652,0,0,1,4.03-6.784Zm32.4,2.344a9.619,9.619,0,0,1,3.043,6.908c0,2.906-1.045,7.405-1.809,12.582-.461-1.423-1.265-3.738-2.426-6.62A38.218,38.218,0,0,0,71.7,988.7c.658.17,1.284.373,1.891.576a1.376,1.376,0,0,0,1.727-1.069Zm-7.278,6.99a28.386,28.386,0,0,1,3.618,6.867c1.5,3.712,2.511,7.1,2.632,7.484a36.387,36.387,0,0,1-7.113,12.5c-2.47,2.723-4.605,5.945-8.512,5.962-2.664-.2-6.779-2.621-10.4-6.661a34.876,34.876,0,0,1-7.771-14.8c10.155-2.5,19.787-5.145,27.549-11.349Zm-29.194,15.214a37.4,37.4,0,0,0,7.442,12.706c3.932,4.384,8.351,7.255,12.253,7.525,4.03-.017,8.012-3.905,10.609-6.867a40.731,40.731,0,0,0,6.785-10.9A33.99,33.99,0,0,0,80,1025.177c-3.272.483-7.5-.445-10.855-1.563a1.381,1.381,0,0,0-1.727,1.275,7.035,7.035,0,0,0,2.508,5.1,80.188,80.188,0,0,1-6.168,9c-2.222,2.7-4.455,4.318-5.551,4.318s-3.344-1.6-5.387-4.276a41.333,41.333,0,0,1-4.852-8.511c2.12-1.415,3.66-3.259,3.66-5.633a1.381,1.381,0,0,0-1.727-1.275,32.43,32.43,0,0,1-13.487,1.521C39.477,1018.662,39.849,1011.663,39.748,1004.658Zm32.278,26.891a27.792,27.792,0,0,0,6.456,3c2.87,1.065,6.046,2,8.347,3.619,1.965,1.42,2.961,2.947,2.961,5.14v15.913a283.769,283.769,0,0,1-28.906,2.467l6.538-6.538,1.316-7.895,6.579-5.263c-.986-3.446-2.672-7.055-3.289-10.444Zm-26.4.247-4.523,10.2,6.579,5.263L49,1055.152l6.538,6.538a279.547,279.547,0,0,1-28.906-2.467v-15.995c0-2.368.509-3.808,2.056-5.14s4.34-2.539,8.964-3.618a53.558,53.558,0,0,0,7.977-2.672Zm23.643,4.153-9.252,25.781H56.483L48.835,1037.8c.625.994,1.259,1.957,1.933,2.837,2.234,2.921,4.592,5.3,7.442,5.3s5.224-2.369,7.607-5.263a57.2,57.2,0,0,0,3.454-4.729Z" transform="translate(-24 -964.362)" fill="#e52d27"/>
</svg>
